<svg width="18" height="18" viewBox="0 0 18 18" fill="none" xmlns="http://www.w3.org/2000/svg">
<path d="M14.5667 0.933594H2.5C1.12167 0.933594 0 2.05526 0 3.43359V15.5003C0 16.8789 1.12167 18.0003 2.5 18.0003H14.5667C15.9453 18.0003 17.0667 16.8789 17.0667 15.5003V3.43359C17.0667 2.05526 15.9453 0.933594 14.5667 0.933594ZM16.0667 15.5003C16.0667 16.3273 15.3937 17.0003 14.5667 17.0003H2.5C1.673 17.0003 1 16.3273 1 15.5003V3.43359C1 2.60659 1.673 1.93359 2.5 1.93359H14.5667C15.3937 1.93359 16.0667 2.60659 16.0667 3.43359V15.5003Z" fill="#444444"/>
<path d="M13.5334 3.9668C13.5334 3.69161 13.7583 3.4668 14.0334 3.4668C14.3086 3.4668 14.5334 3.69161 14.5334 3.9668C14.5334 4.24199 14.3086 4.4668 14.0334 4.4668C13.7583 4.4668 13.5334 4.24199 13.5334 3.9668Z" fill="#444444" stroke="black"/>
<path d="M8.53345 4.9668C6.05211 4.9668 4.03345 6.98546 4.03345 9.4668C4.03345 11.9481 6.05211 13.9668 8.53345 13.9668C11.0148 13.9668 13.0334 11.9481 13.0334 9.4668C13.0334 6.98546 11.0148 4.9668 8.53345 4.9668ZM8.53345 12.9668C6.60345 12.9668 5.03345 11.3968 5.03345 9.4668C5.03345 7.5368 6.60345 5.9668 8.53345 5.9668C10.4634 5.9668 12.0334 7.5368 12.0334 9.4668C12.0334 11.3968 10.4634 12.9668 8.53345 12.9668Z" fill="#444444"/>
</svg>
