<svg width="11" height="10" viewBox="0 0 11 10" fill="none" xmlns="http://www.w3.org/2000/svg">
<path d="M10.8782 1.77344C10.4912 1.94319 10.0788 2.05571 9.64892 2.11035C10.0912 1.84628 10.4288 1.43132 10.5875 0.93116C10.1751 1.17701 9.71981 1.35067 9.23461 1.44758C8.84306 1.03067 8.28501 0.772461 7.67623 0.772461C6.49509 0.772461 5.5442 1.73116 5.5442 2.90644C5.5442 3.07555 5.55851 3.23815 5.59363 3.39295C3.81997 3.30644 2.25054 2.45636 1.19623 1.1614C1.01217 1.48075 0.9042 1.84628 0.9042 2.23978C0.9042 2.97864 1.28469 3.6336 1.85184 4.01279C1.50908 4.00628 1.17282 3.90677 0.88794 3.75002C0.88794 3.75653 0.88794 3.76498 0.88794 3.77344C0.88794 4.81018 1.62745 5.67132 2.59721 5.8697C2.42355 5.91718 2.23428 5.93994 2.03786 5.93994C1.90127 5.93994 1.76339 5.93214 1.63396 5.90352C1.91038 6.7484 2.69477 7.36953 3.62745 7.3897C2.9016 7.9575 1.97997 8.29962 0.982249 8.29962C0.807289 8.29962 0.639485 8.29181 0.47168 8.27035C1.41672 8.87978 2.53672 9.22775 3.74453 9.22775C7.67038 9.22775 9.81672 5.97571 9.81672 3.15685C9.81672 3.06254 9.81347 2.97149 9.80892 2.88108C10.2323 2.58059 10.5881 2.20531 10.8782 1.77344Z" fill="#444444"/>
</svg>
