<svg width="169" height="189" fill="none" xmlns="http://www.w3.org/2000/svg"><path d="M58.454 104.13l-2.82 1.22-11.27-7.86-3 1.66c-2.41 1.44-4.75 1.54-5.87.9l-.23.11c-1.74.76-2.77.08-3.12-.74-.35-.82-.15-2 1.59-2.78l.23-.1c.21-1 1.12-2.68 4.67-3.67l3.27-1.05 2-13.59 2.82-1.23 2.19 12.59 8.06-2.76 1.22-3.23 2.24-.83.16 3 .8-.07.73 1.67-.6.59 2.12 2.2-2.14 1.07-3.18-1.32-7.53 4 7.66 10.22zm-.21-14.95l3.2 1.33 1-.52-1.94-2 .73-.74-.34-.79-1 .09-.15-2.8-1.09.4-1.22 3.24-9.12 3.11-2.17-12.51-1.69.73-1.95 13.64-3.69 1.18c-3.44.95-4.12 2.49-4.22 3.32v.21l-.2.07c-.127.036-.25.083-.37.14-1.07.46-1.55 1.19-1.24 1.89.31.7 1.16.86 2.23.39.12-.049.237-.105.35-.17l.19-.11.18.13c.73.54 2.86.64 5.32-.82l3.36-1.88 11.3 7.89 1.69-.73-7.66-10.14 8.5-4.55zm96.99 98.88a.314.314 0 00.27-.15c.36-.547.694-1.097 1-1.65a.328.328 0 00-.1-.45.329.329 0 00-.45.11c-.34.55-.68 1.09-1 1.64a.324.324 0 00-.001.361.335.335 0 00.091.089.424.424 0 00.19.05zm2-3.32a.335.335 0 00.28-.16c.32-.57.64-1.14 1-1.71a.332.332 0 00.029-.245.331.331 0 00-.149-.195.328.328 0 00-.44.13c-.31.57-.63 1.13-.95 1.69a.329.329 0 00.11.45.336.336 0 00.17.04h-.05zm1.86-3.42a.33.33 0 00.29-.18c.3-.58.59-1.17.87-1.75a.311.311 0 00.032-.122.313.313 0 00-.081-.233.3.3 0 00-.101-.075.321.321 0 00-.121-.033.33.33 0 00-.233.082.303.303 0 00-.076.101c-.28.58-.57 1.16-.87 1.74a.332.332 0 00-.015.246.319.319 0 00.165.184.235.235 0 00.19.04h-.05zm1.69-3.52a.346.346 0 00.3-.19l.78-1.79a.331.331 0 00-.18-.43.332.332 0 00-.246.005.334.334 0 00-.174.175c-.25.59-.51 1.18-.77 1.78a.313.313 0 00.057.349c.029.03.064.054.103.071a.32.32 0 00.18.03h-.05zm1.51-3.59a.33.33 0 00.3-.2c.24-.62.47-1.23.7-1.84a.336.336 0 00.018-.125.303.303 0 00-.032-.122.303.303 0 00-.186-.163.327.327 0 00-.41.19c-.22.61-.45 1.21-.69 1.82a.333.333 0 00.18.42l.12.02zm1.34-3.66a.327.327 0 00.186-.062.328.328 0 00.114-.158c.22-.62.42-1.24.61-1.86a.328.328 0 00-.21-.41.33.33 0 00-.41.21c-.19.62-.39 1.23-.6 1.85a.33.33 0 00.21.41l.1.02zm1.16-3.72a.335.335 0 00.195-.069.333.333 0 00.115-.171c.18-.63.36-1.26.52-1.88a.327.327 0 00-.354-.408.31.31 0 00-.118.042.311.311 0 00-.148.196c-.17.62-.34 1.25-.52 1.87a.327.327 0 00.026.246.33.33 0 00.194.154l.09.02zm1-3.77a.333.333 0 00.31-.25c.15-.64.3-1.28.43-1.91a.31.31 0 00-.125-.332.293.293 0 00-.115-.048.316.316 0 00-.39.24c-.13.63-.28 1.26-.43 1.9a.33.33 0 00.24.39l.08.01zm.82-3.82a.321.321 0 00.32-.26c.12-.64.24-1.28.35-1.92a.316.316 0 00-.26-.37.32.32 0 00-.38.26c-.11.63-.22 1.27-.35 1.91a.32.32 0 00.26.38h.06zm.66-3.84a.312.312 0 00.32-.27c.1-.65.19-1.3.27-1.94a.314.314 0 00-.064-.239.302.302 0 00-.096-.082.303.303 0 00-.12-.039.287.287 0 00-.127.005.297.297 0 00-.114.056.295.295 0 00-.082.097.304.304 0 00-.037.122c-.08.626-.17 1.266-.27 1.92a.33.33 0 00.27.37h.05zm.49-3.87a.31.31 0 00.32-.29c.07-.65.14-1.3.19-1.94a.33.33 0 00-.078-.237.331.331 0 00-.222-.113.288.288 0 00-.234.069.3.3 0 00-.106.221c-.06.64-.12 1.29-.19 1.94a.306.306 0 00.013.124.313.313 0 00.157.19c.037.02.078.032.12.036h.03zm.33-3.88a.321.321 0 00.32-.3c0-.67.08-1.32.1-2a.322.322 0 00-.31-.34.358.358 0 00-.34.31c0 .64 0 1.29-.09 1.94a.335.335 0 00.079.236.334.334 0 00.221.114l.02.04zm.15-3.9a.322.322 0 00.32-.32v-1.95a.32.32 0 00-.093-.227.32.32 0 00-.547.227v1.94a.317.317 0 00.09.232.318.318 0 00.23.098zm0-3.9a.315.315 0 00.23-.098.318.318 0 00.09-.232c0-.67-.06-1.32-.09-2a.326.326 0 00-.35-.3.318.318 0 00-.3.34c0 .63.07 1.28.09 1.94a.326.326 0 00.211.332.33.33 0 00.139.018h-.02zm-.23-3.89a.326.326 0 00.218-.115.332.332 0 00.06-.111.324.324 0 00.012-.124c-.06-.667-.13-1.334-.21-2a.303.303 0 00-.118-.219.294.294 0 00-.115-.056.286.286 0 00-.127-.005.327.327 0 00-.28.36c.08.61.15 1.26.21 1.93a.323.323 0 00.234.334.328.328 0 00.146.006h-.03zm-.48-3.87a.32.32 0 00.26-.37l-.06-.39c-.09-.51-.19-1-.29-1.54a.32.32 0 00-.254-.252.315.315 0 00-.126.002.305.305 0 00-.254.253.302.302 0 00.004.127c.1.51.19 1 .28 1.52l.07.38a.305.305 0 00.256.276.318.318 0 00.134-.006h-.02zm-.77-3.82h.07a.318.318 0 00.202-.139.305.305 0 00.038-.241c-.15-.64-.3-1.27-.47-1.91a.317.317 0 00-.4-.22.325.325 0 00-.237.265.33.33 0 00.007.125c.17.63.33 1.25.47 1.88a.329.329 0 00.34.24h-.02zm-1-3.76h.09a.328.328 0 00.194-.154.31.31 0 00.026-.246c-.19-.63-.39-1.25-.6-1.87a.31.31 0 00-.163-.186.303.303 0 00-.122-.032.297.297 0 00-.125.018.312.312 0 00-.186.163.319.319 0 00-.031.122.316.316 0 00.017.125c.21.61.4 1.23.59 1.85a.33.33 0 00.125.158.328.328 0 00.195.052h-.01zm-1.25-3.7a.227.227 0 00.11 0 .318.318 0 00.19-.41c-.23-.61-.47-1.22-.73-1.82a.329.329 0 00-.296-.205.316.316 0 00-.227.095.315.315 0 00-.067.35c.25.6.49 1.2.71 1.81a.334.334 0 00.32.18h-.01zm-1.47-3.54a.366.366 0 00.14 0 .33.33 0 00.16-.43c-.28-.59-.56-1.18-.86-1.77a.328.328 0 00-.43-.14.331.331 0 00-.15.44c.3.57.58 1.15.85 1.74a.325.325 0 00.122.122c.051.028.11.041.168.038zm-1.76-3.48a.293.293 0 00.15 0 .324.324 0 00.169-.32.303.303 0 00-.039-.12c-.32-.57-.65-1.14-1-1.69a.31.31 0 00-.44-.11.335.335 0 00-.093.083.321.321 0 00-.017.357c.34.55.66 1.11 1 1.68a.32.32 0 00.24.07l.03.05zm-2-3.33a.324.324 0 00.18 0 .324.324 0 00.14-.334.315.315 0 00-.05-.116c-.37-.54-.74-1.08-1.13-1.61a.326.326 0 00-.45-.07.329.329 0 00-.07.45c.38.52.75 1.05 1.11 1.59a.322.322 0 00.21.04l.06.05zm-44-2.21h.41a.34.34 0 00.121-.032.34.34 0 00.1-.076.337.337 0 00.063-.108.326.326 0 00.016-.124.304.304 0 00-.105-.224.299.299 0 00-.235-.076 6.31 6.31 0 01-1.15 0 5.623 5.623 0 01-.68-.13.328.328 0 00-.4.23.334.334 0 00-.006.126.321.321 0 00.246.264c.253.07.51.12.77.15.248-.005.495-.022.74-.05l.11.05zm2.3-.39h.1a6.028 6.028 0 001.79-1 .329.329 0 00-.23-.558.336.336 0 00-.125.025.33.33 0 00-.105.073 5.617 5.617 0 01-1.59.89.312.312 0 00-.186.163.319.319 0 00-.031.122.316.316 0 00.017.125.338.338 0 00.25.11l.11.05zm39.45-.54a.314.314 0 00.2-.07.329.329 0 000-.46c-.41-.51-.84-1-1.26-1.5a.329.329 0 00-.46 0 .331.331 0 000 .46c.42.48.84 1 1.24 1.48a.36.36 0 00.17.04l.11.05zm-45.06-.05a.343.343 0 00.151-.04.339.339 0 00.119-.1.328.328 0 00-.1-.45 6.937 6.937 0 01-1.39-1.22.316.316 0 00-.45 0 .331.331 0 000 .46 7.19 7.19 0 001.53 1.34l.03.01h.11zm8.53-1.85a.333.333 0 00.28-.17c.33-.623.544-1.301.63-2a.314.314 0 00-.064-.239.302.302 0 00-.096-.082.303.303 0 00-.12-.039.314.314 0 00-.235.061.318.318 0 00-.125.209 5.389 5.389 0 01-.55 1.74.32.32 0 00.13.44l.04.03.11.05zm33.95-1a.336.336 0 00.23-.09.329.329 0 000-.46c-.46-.47-.93-.93-1.4-1.38a.329.329 0 00-.46 0 .321.321 0 000 .45c.46.44.92.9 1.37 1.36.046.026.098.04.15.04l.11.08zm-45 0a.42.42 0 00.15 0 .34.34 0 00.14-.44 6.997 6.997 0 01-.61-1.76.318.318 0 00-.39-.24.31.31 0 00-.204.137.331.331 0 00-.046.243c.145.661.37 1.302.67 1.91.048.03.104.047.16.05l.13.1zm42.19-2.65a.33.33 0 00.24-.11.329.329 0 000-.46l-.6-.5-.93-.73a.329.329 0 00-.46.06.335.335 0 00.06.45l.92.72.59.5a.348.348 0 00.05-.03l.13.1zm-30.52-.09a.329.329 0 00.29-.36 10.75 10.75 0 00-.42-2 .318.318 0 00-.4-.22.297.297 0 00-.111.057.302.302 0 00-.099.343c.182.604.312 1.223.39 1.85a.326.326 0 00.22.23l.13.1zm-12.45-1a.321.321 0 00.32-.3c.046-.615.188-1.22.42-1.79a.322.322 0 00.002-.246.315.315 0 00-.294-.2.322.322 0 00-.298.195 6.297 6.297 0 00-.47 2.001.323.323 0 00.3.35l.02-.01zm39.74-1.41a.321.321 0 00.321-.382.33.33 0 00-.131-.209c-.54-.37-1.1-.73-1.65-1.07a.329.329 0 00-.492.228.33.33 0 00.059.239.335.335 0 00.093.084c.547.34 1.087.69 1.62 1.05a.322.322 0 00.18.06zm-28.5-1.45a.28.28 0 00.13 0 .33.33 0 00.17-.43c-.25-.57-.54-1.17-.87-1.77a.322.322 0 00-.319-.17.329.329 0 00-.275.233.334.334 0 00.024.246c.32.58.61 1.16.85 1.72a.322.322 0 00.29.2v-.03zm25.13-.55a.317.317 0 00.29-.17.33.33 0 00-.13-.44c-.57-.31-1.16-.61-1.75-.9a.318.318 0 00-.43.15.33.33 0 00-.015.246.325.325 0 00.165.183c.58.28 1.16.58 1.72.89a.281.281 0 00.15.04zm-35.08-.25a.325.325 0 00.25-.12 8.351 8.351 0 011.36-1.27.305.305 0 00.134-.21.319.319 0 00-.064-.24.312.312 0 00-.336-.127.31.31 0 00-.114.056 8.894 8.894 0 00-1.48 1.38.33.33 0 000 .45.339.339 0 00.33.07l-.08.01zm31.58-1.45a.35.35 0 00.3-.2.322.322 0 00.002-.246.315.315 0 00-.172-.174c-.61-.26-1.22-.5-1.83-.73a.328.328 0 00-.42.19.327.327 0 00.014.25c.037.08.104.14.186.17.6.22 1.2.46 1.79.71a.31.31 0 00.18.02l-.05.01zm-28.49-.88a.23.23 0 00.14 0c.573-.277 1.16-.52 1.76-.73a.317.317 0 00.2-.41.313.313 0 00-.163-.186.316.316 0 00-.247-.014c-.627.218-1.241.472-1.84.76a.33.33 0 00-.14.44.32.32 0 00.34.13l-.05.01zm5-.27a.259.259 0 00.17-.05.304.304 0 00.145-.199.312.312 0 00-.045-.242c-.16-.26-.33-.51-.5-.78l.89-.18a.32.32 0 10-.12-.63c-.39.07-.78.15-1.16.24l-.2-.28a.324.324 0 10-.53.37l.05.07h-.08a.339.339 0 00-.24.4.343.343 0 00.4.23l.31-.07c.23.32.44.65.64 1a.316.316 0 00.26.11l.01.01zm19.86-.21a.31.31 0 00.31-.22.328.328 0 00-.21-.41c-.62-.19-1.26-.38-1.89-.54a.306.306 0 00-.245.03.316.316 0 00-.145.2.328.328 0 00.034.242.325.325 0 00.196.147c.62.16 1.24.35 1.86.54l.09.01zm-3.76-1a.31.31 0 00.31-.26.313.313 0 00-.045-.243.333.333 0 00-.205-.137c-.64-.14-1.29-.26-1.93-.36a.322.322 0 00-.221.59.307.307 0 00.121.04c.63.11 1.27.23 1.9.36l.07.01zm-13.57-.55c.63-.09 1.28-.16 1.92-.21a.329.329 0 00.3-.35.317.317 0 00-.35-.29c-.65 0-1.31.12-2 .21a.303.303 0 00-.118.039.302.302 0 00-.147.196.31.31 0 00-.005.124.32.32 0 00.42.28h-.02zm9.72-.08a.318.318 0 00.32-.29.319.319 0 00-.28-.35c-.65-.08-1.31-.14-2-.18a.319.319 0 00-.34.3.314.314 0 00.177.31.314.314 0 00.123.03c.64.05 1.29.1 1.92.18h.08zm-5.84-.24h1.94a.31.31 0 00.32-.31.305.305 0 00-.02-.124.325.325 0 00-.29-.207h-2a.32.32 0 00-.31.34.319.319 0 00.38.3h-.02zm-8.65-1.11a.309.309 0 00.2-.07.321.321 0 000-.45c-.4-.52-.82-1-1.24-1.53a.319.319 0 00-.543.23.33.33 0 00.093.23c.41.48.83 1 1.22 1.49a.322.322 0 00.29.14l-.02-.04zm-2.54-3a.308.308 0 00.22-.09.31.31 0 000-.45c-.45-.48-.92-.94-1.4-1.38a.316.316 0 00-.225-.097.306.306 0 00-.225.097.322.322 0 000 .46c.47.43.93.89 1.38 1.35a.295.295 0 00.27.15l-.02-.04zm-2.85-2.65a.358.358 0 00.25-.11.33.33 0 000-.46c-.51-.42-1-.82-1.56-1.2a.318.318 0 00-.45.08.32.32 0 00.07.45c.52.373 1.03.763 1.53 1.17a.312.312 0 00.18.11l-.02-.04zm-3.17-2.26a.315.315 0 00.27-.15.326.326 0 00.042-.246.332.332 0 00-.142-.205c-.56-.34-1.14-.67-1.72-1a.329.329 0 00-.44.14.323.323 0 00-.019.245c.027.08.084.147.159.186.57.3 1.13.62 1.68 1a.262.262 0 00.19.07l-.02-.04zm-3.46-1.8a.32.32 0 00.3-.19.322.322 0 00.002-.246.314.314 0 00-.172-.175c-.6-.26-1.22-.5-1.84-.72a.32.32 0 00-.427.325.322.322 0 00.108.223.33.33 0 00.109.063c.6.21 1.21.45 1.79.7a.32.32 0 00.15.06l-.02-.04zm-24.9-.8h.07l1.9-.4a.32.32 0 00.26-.38.33.33 0 00-.38-.25c-.64.12-1.28.26-1.92.4a.33.33 0 00-.25.38.34.34 0 00.34.29l-.02-.04zm21.22-.48a.319.319 0 00.327-.365.328.328 0 00-.124-.211.323.323 0 00-.113-.055c-.63-.17-1.27-.33-1.92-.46a.33.33 0 00-.38.26.33.33 0 00.25.38c.64.12 1.27.27 1.88.44l.08.01zm-17.4-.28h.06a69.699 69.699 0 011.92-.3.33.33 0 00.148-.583.311.311 0 00-.238-.058c-.65.09-1.29.19-1.94.3a.32.32 0 00-.26.37.309.309 0 00.33.31l-.02-.04zm13.59-.49a.33.33 0 00.32-.28.32.32 0 00-.28-.36c-.64-.09-1.3-.16-2-.21a.31.31 0 00-.34.29.32.32 0 00.29.35c.65.05 1.3.12 1.92.21h.09zm-9.73-.05c.64-.07 1.29-.12 1.93-.17a.318.318 0 00.3-.34.32.32 0 00-.35-.3c-.65 0-1.3.1-2 .17a.32.32 0 00-.29.35.32.32 0 00.43.33l-.02-.04zm5.84-.26a.33.33 0 00.33-.31.322.322 0 00-.195-.305.32.32 0 00-.125-.026h-2a.32.32 0 100 .64h1.99zm-49.96-52.03l-2.82 1.22-11.27-7.86-3 1.66c-2.41 1.44-4.75 1.54-5.87.9l-.23.11c-1.74.76-2.77.08-3.12-.74-.35-.82-.15-2 1.59-2.78l.23-.1c.21-1 1.12-2.68 4.67-3.67l3.27-1.05 2-13.59L30.724 0l2.19 12.59 8.06-2.76 1.22-3.23 2.24-.83.16 3 .8-.07.73 1.67-.6.59 2.12 2.2-2.14 1.07-3.18-1.32-7.53 4 7.66 10.22zm-.21-14.95l3.2 1.33 1-.52-1.94-2 .73-.74-.34-.79-1 .09-.15-2.8-1.09.4-1.22 3.24-9.12 3.11L30.144.99l-1.69.73-1.95 13.64-3.69 1.18c-3.44.95-4.12 2.49-4.22 3.32v.21l-.2.07c-.127.036-.25.083-.37.14-1.07.46-1.55 1.19-1.24 1.89.31.7 1.16.86 2.23.39.12-.049.237-.105.35-.17l.19-.11.18.13c.73.54 2.86.64 5.32-.82l3.36-1.88 11.3 7.89 1.69-.73-7.66-10.14 8.5-4.55zm96.99 98.88a.314.314 0 00.27-.15c.36-.547.694-1.097 1-1.65a.328.328 0 00-.1-.45.329.329 0 00-.45.11c-.34.55-.68 1.09-1 1.64a.324.324 0 00-.001.361.335.335 0 00.091.089.424.424 0 00.19.05zm2-3.32a.335.335 0 00.28-.16c.32-.57.64-1.14 1-1.71a.332.332 0 00.029-.245.331.331 0 00-.149-.195.328.328 0 00-.44.13c-.31.57-.63 1.13-.95 1.69a.329.329 0 00.11.45.336.336 0 00.17.04h-.05zm1.86-3.42a.33.33 0 00.29-.18c.3-.58.59-1.17.87-1.75a.311.311 0 00.032-.122.313.313 0 00-.081-.233.3.3 0 00-.101-.075.321.321 0 00-.121-.033.33.33 0 00-.233.082.303.303 0 00-.076.101c-.28.58-.57 1.16-.87 1.74a.332.332 0 00-.015.246.319.319 0 00.165.184.235.235 0 00.19.04h-.05zm1.69-3.52a.346.346 0 00.3-.19l.78-1.79a.329.329 0 00-.18-.43.33.33 0 00-.42.18c-.25.59-.51 1.18-.77 1.78a.313.313 0 00.057.349c.029.03.064.054.103.071a.32.32 0 00.18.03h-.05zm1.51-3.59a.33.33 0 00.3-.2c.24-.62.47-1.23.7-1.84a.33.33 0 00.018-.125.307.307 0 00-.032-.122.309.309 0 00-.186-.163.329.329 0 00-.41.19c-.22.61-.45 1.21-.69 1.82a.328.328 0 00.18.42l.12.02zm1.34-3.66a.321.321 0 00.3-.22c.22-.62.42-1.24.61-1.86a.328.328 0 00-.21-.41.332.332 0 00-.41.21c-.19.62-.39 1.23-.6 1.85a.333.333 0 00.21.41l.1.02zm1.16-3.72a.33.33 0 00.31-.24c.18-.63.36-1.26.52-1.88a.328.328 0 00-.23-.4.316.316 0 00-.242.034.323.323 0 00-.148.196c-.17.62-.34 1.25-.52 1.87a.32.32 0 00.22.4l.09.02zm1-3.77a.33.33 0 00.31-.25c.15-.64.3-1.28.43-1.91a.308.308 0 00-.24-.38.318.318 0 00-.338.124.327.327 0 00-.052.115c-.13.63-.28 1.26-.43 1.9a.33.33 0 00.24.39l.08.01zm.82-3.82a.32.32 0 00.32-.26c.12-.64.24-1.28.35-1.92a.317.317 0 00-.26-.37.318.318 0 00-.334.14.32.32 0 00-.046.12c-.11.63-.22 1.27-.35 1.91a.323.323 0 00.141.334.32.32 0 00.119.046h.06zm.66-3.84a.311.311 0 00.32-.27c.1-.65.19-1.3.27-1.94a.314.314 0 00-.064-.24.32.32 0 00-.216-.12.31.31 0 00-.36.28 77.82 77.82 0 01-.27 1.92.33.33 0 00.27.37h.05zm.49-3.87a.31.31 0 00.32-.29c.07-.65.14-1.3.19-1.94a.328.328 0 00-.3-.35.296.296 0 00-.234.069.29.29 0 00-.106.22c-.06.64-.12 1.29-.19 1.94a.312.312 0 00.013.126.313.313 0 00.157.189c.037.02.078.032.12.035h.03zm.33-3.88a.321.321 0 00.32-.3c0-.67.08-1.32.1-2a.319.319 0 00-.31-.34.36.36 0 00-.34.31c0 .64 0 1.29-.09 1.94a.333.333 0 00.3.35l.02.04zm.15-3.9a.321.321 0 00.32-.32v-1.95a.32.32 0 10-.64 0v1.94a.318.318 0 00.09.232.326.326 0 00.23.097zm0-3.9a.316.316 0 00.23-.098.317.317 0 00.09-.233c0-.67-.06-1.32-.09-2a.33.33 0 00-.471-.268.318.318 0 00-.162.184.326.326 0 00-.017.124c0 .63.07 1.28.09 1.94a.327.327 0 00.211.333.318.318 0 00.139.017h-.02zm-.23-3.89a.325.325 0 00.218-.115.332.332 0 00.06-.11c.012-.041.016-.083.012-.126-.06-.666-.13-1.333-.21-2a.307.307 0 00-.233-.274.33.33 0 00-.407.355c.08.61.15 1.26.21 1.93a.325.325 0 00.106.264.324.324 0 00.274.075h-.03zm-.48-3.87a.32.32 0 00.26-.37l-.06-.39c-.09-.51-.19-1-.29-1.54a.317.317 0 00-.254-.251.324.324 0 00-.126 0 .313.313 0 00-.208.136.314.314 0 00-.042.245c.1.51.19 1 .28 1.52l.07.38a.313.313 0 00.256.276.309.309 0 00.134-.007h-.02zm-.77-3.82h.07a.307.307 0 00.202-.139.309.309 0 00.038-.242c-.15-.64-.3-1.27-.47-1.91a.318.318 0 00-.4-.22.318.318 0 00-.237.266.327.327 0 00.007.125c.17.63.33 1.25.47 1.88a.333.333 0 00.34.24h-.02zm-1-3.76h.09a.316.316 0 00.232-.274.315.315 0 00-.012-.127c-.19-.63-.39-1.25-.6-1.87a.313.313 0 00-.163-.185.316.316 0 00-.247-.015.322.322 0 00-.2.41c.21.61.4 1.23.59 1.85a.32.32 0 00.32.21h-.01zm-1.25-3.7a.22.22 0 00.11 0 .32.32 0 00.19-.41c-.23-.61-.47-1.22-.73-1.82a.316.316 0 00-.296-.204.31.31 0 00-.227.094.316.316 0 00-.067.35c.25.6.49 1.2.71 1.81a.333.333 0 00.32.18h-.01zm-1.47-3.54a.366.366 0 00.14 0 .328.328 0 00.16-.43c-.28-.59-.56-1.18-.86-1.77a.328.328 0 00-.43-.14.329.329 0 00-.15.44c.3.57.58 1.15.85 1.74a.31.31 0 00.29.16zm-1.76-3.48a.279.279 0 00.15 0 .32.32 0 00.13-.44c-.32-.57-.65-1.14-1-1.69a.317.317 0 00-.322-.156.335.335 0 00-.211.13.317.317 0 00-.059.238.31.31 0 00.042.117c.34.55.66 1.11 1 1.68a.315.315 0 00.24.07l.03.05zm-2-3.33a.31.31 0 00.18 0 .318.318 0 00.09-.45c-.37-.54-.74-1.08-1.13-1.61a.328.328 0 00-.45-.07.33.33 0 00-.07.45c.38.52.75 1.05 1.11 1.59a.321.321 0 00.21.04l.06.05zm-44-2.21h.41a.318.318 0 00.3-.34.31.31 0 00-.34-.3 6.293 6.293 0 01-1.15 0 5.418 5.418 0 01-.68-.13.33.33 0 00-.4.23.32.32 0 00.24.39c.253.07.51.12.77.15.248-.005.495-.022.74-.05l.11.05zm2.3-.39h.1a5.995 5.995 0 001.79-1 .33.33 0 00-.105-.533.32.32 0 00-.355.072 5.593 5.593 0 01-1.59.89.322.322 0 00-.2.41.337.337 0 00.25.11l.11.05zm39.45-.54a.309.309 0 00.2-.07.33.33 0 000-.46c-.41-.51-.84-1-1.26-1.5a.329.329 0 00-.46 0 .33.33 0 000 .46c.42.48.84 1 1.24 1.48a.342.342 0 00.17.04l.11.05zm-45.06-.05a.35.35 0 00.27-.14.33.33 0 00-.1-.45 6.916 6.916 0 01-1.39-1.22.32.32 0 00-.45 0 .33.33 0 000 .46 7.19 7.19 0 001.53 1.34l.03.01h.11zm8.53-1.85a.33.33 0 00.28-.17c.33-.623.544-1.301.63-2a.314.314 0 00-.064-.24.32.32 0 00-.216-.12.319.319 0 00-.36.27 5.384 5.384 0 01-.55 1.74.323.323 0 00.032.36c.027.032.06.06.098.08l.04.03.11.05zm33.95-1a.329.329 0 00.23-.09.33.33 0 000-.46c-.46-.47-.93-.93-1.4-1.38a.329.329 0 00-.46 0 .32.32 0 000 .45c.46.44.92.9 1.37 1.36.046.026.098.04.15.04l.11.08zm-45 0c.05.009.1.009.15 0a.34.34 0 00.14-.44 6.929 6.929 0 01-.61-1.76.32.32 0 00-.39-.24.323.323 0 00-.251.254.318.318 0 00.001.125c.145.662.37 1.303.67 1.91a.33.33 0 00.16.05l.13.1zm42.19-2.65a.317.317 0 00.24-.11.33.33 0 000-.46l-.6-.5-.93-.73a.329.329 0 00-.46.06.331.331 0 00.06.45l.92.72.59.5a.265.265 0 00.05-.03l.13.1zm-30.52-.09a.33.33 0 00.29-.36 10.755 10.755 0 00-.42-2 .318.318 0 00-.4-.22.297.297 0 00-.111.057.302.302 0 00-.099.343c.182.604.312 1.223.39 1.85a.323.323 0 00.22.23l.13.1zm-12.45-1a.32.32 0 00.32-.3 5.93 5.93 0 01.42-1.79.322.322 0 00-.17-.42.322.322 0 00-.35.066.32.32 0 00-.07.104 6.302 6.302 0 00-.47 2 .32.32 0 00.3.35l.02-.01zm39.74-1.41a.321.321 0 00.321-.382.33.33 0 00-.131-.209c-.54-.37-1.1-.73-1.65-1.07a.329.329 0 00-.492.228.33.33 0 00.059.239.335.335 0 00.093.084c.547.34 1.087.69 1.62 1.05a.322.322 0 00.18.06zm-28.5-1.45a.28.28 0 00.13 0 .33.33 0 00.17-.43c-.25-.57-.54-1.17-.87-1.77a.322.322 0 00-.319-.17.329.329 0 00-.275.233.334.334 0 00.024.247c.32.58.61 1.16.85 1.72a.322.322 0 00.29.2v-.03zm25.13-.55a.317.317 0 00.29-.17.33.33 0 00-.13-.44c-.57-.31-1.16-.61-1.75-.9a.318.318 0 00-.43.15.33.33 0 00-.015.246.325.325 0 00.165.184c.58.28 1.16.58 1.72.89a.281.281 0 00.15.04zm-35.08-.25a.33.33 0 00.25-.12c.405-.473.86-.9 1.36-1.27a.308.308 0 00.127-.337.31.31 0 00-.057-.113.31.31 0 00-.45-.07 8.894 8.894 0 00-1.48 1.38.33.33 0 000 .45.339.339 0 00.33.07l-.08.01zm31.58-1.45a.35.35 0 00.3-.2.322.322 0 00.002-.246.315.315 0 00-.172-.174c-.61-.26-1.22-.5-1.83-.73a.328.328 0 00-.42.19.327.327 0 00.014.25c.037.08.104.14.186.17.6.22 1.2.46 1.79.71a.31.31 0 00.18.02l-.05.01zm-28.49-.88a.23.23 0 00.14 0 16.97 16.97 0 011.76-.73.32.32 0 00.2-.41.32.32 0 00-.41-.2c-.627.218-1.241.472-1.84.76a.33.33 0 00-.14.44.32.32 0 00.34.13l-.05.01zm5-.27a.259.259 0 00.17-.05.304.304 0 00.145-.199.312.312 0 00-.045-.241c-.16-.26-.33-.51-.5-.78l.89-.18a.32.32 0 10-.12-.63c-.39.07-.78.15-1.16.24l-.2-.28a.324.324 0 10-.53.37l.05.07h-.08a.339.339 0 00-.24.4.343.343 0 00.4.23l.31-.07c.23.32.44.65.64 1a.316.316 0 00.26.11l.01.01zm19.86-.21a.31.31 0 00.31-.22.328.328 0 00-.21-.41c-.62-.19-1.26-.38-1.89-.54a.306.306 0 00-.245.03.316.316 0 00-.145.2.328.328 0 00.034.242.325.325 0 00.196.148c.62.16 1.24.35 1.86.54l.09.01zm-3.76-1a.31.31 0 00.31-.26.313.313 0 00-.045-.243.333.333 0 00-.205-.138c-.64-.14-1.29-.26-1.93-.36a.322.322 0 00-.221.59.307.307 0 00.121.04c.63.11 1.27.23 1.9.36l.07.01zm-13.57-.55c.63-.09 1.28-.16 1.92-.21a.329.329 0 00.3-.35.317.317 0 00-.35-.29c-.65 0-1.31.12-2 .21a.303.303 0 00-.118.039.302.302 0 00-.147.196.31.31 0 00-.005.124.32.32 0 00.42.28h-.02zm9.72-.08a.318.318 0 00.32-.29.319.319 0 00-.28-.35c-.65-.08-1.31-.14-2-.18a.319.319 0 00-.34.3.314.314 0 00.177.31.314.314 0 00.123.03c.64.05 1.29.1 1.92.18h.08zm-5.84-.24h1.94a.31.31 0 00.32-.31.305.305 0 00-.02-.124.325.325 0 00-.29-.207h-2a.32.32 0 00-.31.34.319.319 0 00.38.3h-.02zm-8.65-1.11a.309.309 0 00.2-.07.321.321 0 000-.45c-.4-.52-.82-1-1.24-1.53a.32.32 0 00-.45 0 .33.33 0 000 .46c.41.48.83 1 1.22 1.49a.32.32 0 00.29.14l-.02-.04zm-2.54-3a.312.312 0 00.22-.09.308.308 0 00.072-.348.31.31 0 00-.072-.102c-.45-.48-.92-.94-1.4-1.38a.31.31 0 00-.45 0 .318.318 0 000 .46c.47.43.93.89 1.38 1.35a.29.29 0 00.27.15l-.02-.04zm-2.85-2.65a.36.36 0 00.25-.11.33.33 0 000-.46c-.51-.42-1-.82-1.56-1.2a.32.32 0 00-.45.08.321.321 0 00.07.45c.52.373 1.03.763 1.53 1.17a.31.31 0 00.18.11l-.02-.04zm-3.17-2.26a.32.32 0 00.312-.396.33.33 0 00-.142-.204c-.56-.34-1.14-.67-1.72-1a.33.33 0 00-.44.14.32.32 0 00.14.43c.57.3 1.13.62 1.68 1a.26.26 0 00.19.07l-.02-.04zm-3.46-1.8a.32.32 0 00.3-.19.322.322 0 00-.17-.42c-.6-.26-1.22-.5-1.84-.72a.32.32 0 00-.428.324.322.322 0 00.218.286c.6.21 1.21.45 1.79.7a.32.32 0 00.15.06l-.02-.04zm-24.9-.8h.07l1.9-.4a.32.32 0 00.26-.38.33.33 0 00-.38-.25c-.64.12-1.28.26-1.92.4a.33.33 0 00-.25.38.34.34 0 00.34.29l-.02-.04zm21.22-.48a.32.32 0 00.09-.63c-.63-.17-1.27-.33-1.92-.46a.33.33 0 00-.38.26.33.33 0 00.25.38c.64.12 1.27.27 1.88.44l.08.01zm-17.4-.28h.06a69.43 69.43 0 011.92-.3.33.33 0 00.148-.583.31.31 0 00-.238-.057c-.65.09-1.29.19-1.94.3a.32.32 0 00-.26.37.308.308 0 00.206.292.31.31 0 00.124.018l-.02-.04zm13.59-.49a.33.33 0 00.32-.28.32.32 0 00-.28-.36c-.64-.09-1.3-.16-2-.21a.31.31 0 00-.34.29.32.32 0 00.29.35c.65.05 1.3.12 1.92.21h.09zm-9.73-.05c.64-.07 1.29-.12 1.93-.17a.32.32 0 00.3-.34.32.32 0 00-.35-.3c-.65 0-1.3.1-2 .17a.32.32 0 00-.29.35.32.32 0 00.43.33l-.02-.04zm5.84-.26a.33.33 0 00.33-.31.322.322 0 00-.195-.305.32.32 0 00-.125-.025h-2a.32.32 0 100 .64h1.99zm-49.96 73.97l-2.82 1.22-11.27-7.86-3 1.66c-2.41 1.44-4.75 1.54-5.87.9l-.23.11c-1.74.76-2.77.08-3.12-.74-.35-.82-.15-2 1.59-2.78l.23-.1c.21-1 1.12-2.68 4.67-3.67l3.27-1.05 2-13.59 2.82-1.23 2.19 12.59 8.06-2.76 1.22-3.23 2.24-.83.16 3 .8-.07.73 1.67-.6.59 2.12 2.2-2.14 1.07-3.18-1.32-7.53 4 7.66 10.22zm-.21-14.95l3.2 1.33 1-.52-1.94-2 .73-.74-.34-.79-1 .09-.15-2.8-1.09.4-1.22 3.24-9.12 3.11-2.17-12.51-1.69.73-1.95 13.64-3.69 1.18c-3.44.95-4.12 2.49-4.22 3.32v.21l-.2.07a2.35 2.35 0 00-.37.14c-1.07.46-1.55 1.19-1.24 1.89.31.7 1.16.86 2.23.39.12-.049.237-.105.35-.17l.19-.11.18.13c.73.54 2.86.64 5.32-.82l3.36-1.88 11.3 7.89 1.69-.73-7.66-10.14 8.5-4.55z" fill="#999"/></svg>