<svg width="106" height="81" fill="none" xmlns="http://www.w3.org/2000/svg"><path d="M51.31 14.162c-7.896-4.695-20.916 6.614-24.224 9.696a12.154 12.154 0 013.36-5.094.29.29 0 00.079-.363.263.263 0 00-.088-.095 4.593 4.593 0 00-2.473-.782 4.46 4.46 0 013.803-1.622.274.274 0 00.273-.127.305.305 0 000-.305 3.586 3.586 0 00-3.223-1.596c1.117-.85 3.65-1.155 4.672-1.19a.282.282 0 00.277-.323.288.288 0 00-.063-.143 5.773 5.773 0 00-3.897-1.978c1.415-1.698 5.61-2.208 5.653-2.216a.273.273 0 00.247-.221.271.271 0 00-.145-.357 10.26 10.26 0 00-4.408-1.537c1.706-2.105 7.128-3.396 7.188-3.396a.29.29 0 00.222-.246.287.287 0 00-.154-.289c-3.632-1.885-8.066-.05-8.27 0-5.116 2.547-5.347 10.996-4.81 16.846C23.317 11.717 18.944.586 11.21 0c-.255 0-6.284 0-9.592 3.88a.28.28 0 000 .323.298.298 0 00.299.144c.076 0 7.281-1.163 10.232.62a12.56 12.56 0 00-4.511 3.931.296.296 0 000 .34.29.29 0 00.315.11c.06 0 5.406-1.486 7.862-.042a7.202 7.202 0 00-2.27 1.721 7.167 7.167 0 00-1.422 2.465.28.28 0 00.077.297.273.273 0 00.298.06c1.27-.468 4.579-1.393 6.284-.765a4.496 4.496 0 00-2.047 1.262 4.468 4.468 0 00-1.1 2.134.288.288 0 00.12.28.308.308 0 00.307 0 5.639 5.639 0 015.423.153 5.76 5.76 0 00-2.618 2.114.27.27 0 000 .255.298.298 0 00.188.178 15.401 15.401 0 016.48 4.441c-4.212-1.622-18.502-6.504-23.516 0-.12.178-2.942 4.415-1.705 8.567a.29.29 0 00.255.204h.043a.3.3 0 00.239-.17c0-.06 2.49-5.527 5.065-6.793a10.649 10.649 0 00.716 4.925.28.28 0 00.273.187.29.29 0 00.272-.204c0-.042 1.407-4.356 3.505-5.468a6.054 6.054 0 001.279 4.483.281.281 0 00.29.093.273.273 0 00.213-.212c.247-1.07 1.074-3.702 2.243-4.67a3.788 3.788 0 001.006 3.71.299.299 0 00.298.06.298.298 0 00.188-.246c.09-.767.365-1.501.803-2.139a4.777 4.777 0 011.712-1.52 4.804 4.804 0 00.307 2.75.271.271 0 00.196.162.29.29 0 00.247-.06c.674-.526 1.41-.968 2.192-1.316a3.04 3.04 0 00-.972 2.488 3.06 3.06 0 001.082 2.082c.623.524 1.43.78 2.243.712a3.033 3.033 0 001.79-.79c.725 1.885 3.496 10.919-1.193 28.868-6.327 1.893-7.333 3.88-8.211 5.638a6.983 6.983 0 01-1.126 1.757 4.175 4.175 0 00-.298 4.347c1.168 2.429 5.013 5.095 16.66 4.118 8.016-.679 12.953-2.547 14.675-5.553a4.31 4.31 0 00.307-3.863c-1.706-4.058-6.071-7.344-10.232-7.743-.665-6.547-2.703-21.889-7.529-28.02.204.022.41.022.614 0a3.091 3.091 0 002.091-1.082 3.04 3.04 0 00.037-3.899 3.062 3.062 0 00-1.497-.996c1.642-.142 3.297.01 4.886.45a.282.282 0 00.247 0 .271.271 0 00.128-.22 5.265 5.265 0 00-.853-2.98 5.258 5.258 0 012.422.858 5.229 5.229 0 011.722 1.901.289.289 0 00.256.161.29.29 0 00.256-.161 4.135 4.135 0 00-.512-4.245c1.603.467 3.581 2.887 4.263 3.905a.3.3 0 00.265.128.282.282 0 00.23-.204 6.656 6.656 0 00-.529-5.094c2.618.254 5.84 4.169 5.875 4.245a.3.3 0 00.324.093.272.272 0 00.188-.28 11.675 11.675 0 00-1.28-5.357c3.164.237 7.965 4.907 8.016 4.958a.282.282 0 00.324.051.28.28 0 00.162-.28c-.367-4.73-4.963-7.93-5.176-8.075zM36.056 61.378a4.669 4.669 0 01-1.058 2.423 4.7 4.7 0 01-2.208 1.466c-2.421.85-5.84.289-7.46-1.223a2.224 2.224 0 01-.76-2.267l.205-.747a16.577 16.577 0 006.566 1.01 6.774 6.774 0 004.596-2.054c.076.773.11 1.265.119 1.392zm-.196-2.207c-2.925 3.914-9.601 1.783-10.94 1.299a92.04 92.04 0 001.032-4.16 8.162 8.162 0 005.04 1.171 11.116 11.116 0 004.518-1.503c.145 1.24.265 2.327.35 3.193zm-.426-3.813c-5.116 3.057-8.63.85-9.38.349a95.71 95.71 0 00.742-3.821c1.375.442 2.823.612 4.263.5a9.03 9.03 0 003.744-1.145c.28 1.468.469 2.903.63 4.117zm-8.527-4.05c.213-1.273.384-2.496.512-3.642a8.247 8.247 0 003.53.467 7.842 7.842 0 003.18-.976c.23 1.18.426 2.343.605 3.472a9.734 9.734 0 01-7.81.68h-.017zm.571-4.245c.111-1.087.196-2.122.247-3.099a7.56 7.56 0 002.993.357 6.337 6.337 0 002.652-.85c.23 1.011.452 2.039.648 3.049a7.647 7.647 0 01-6.523.552l-.017-.009zm.282-3.702c0-.908.05-1.766.042-2.547.63.114 1.272.146 1.91.094a5.258 5.258 0 002.729-.985c.281.985.545 1.995.784 3.014a6.527 6.527 0 01-5.448.433l-.017-.009zm.042-3.167c0-1.01-.068-1.936-.145-2.785.459.104.93.135 1.399.094a4.924 4.924 0 002.353-.85 46.5 46.5 0 01.853 2.624 5.608 5.608 0 01-4.443.926l-.017-.009zm-.196-3.396a34.271 34.271 0 00-.256-1.961c.27.026.541.026.81 0a3.82 3.82 0 002.15-.85 35.4 35.4 0 01.894 2.123 4.144 4.144 0 01-3.58.697l-.018-.009zm-.35-2.547a28.62 28.62 0 00-.383-1.766c.176.017.353.017.528 0a2.673 2.673 0 001.706-.773c.356.548.68 1.115.972 1.698a3.415 3.415 0 01-2.805.85l-.017-.009zm-.554-2.377c-.162-.56-.307-.977-.418-1.265h.367c.452-.042.89-.184 1.28-.417.303.326.588.67.852 1.028a2.158 2.158 0 01-2.064.662l-.017-.008zm1.117-2.284a2.562 2.562 0 01-1.935.399 2.5 2.5 0 01-1.365-.784 2.483 2.483 0 01-.52-2.392c.097-.308.253-.593.46-.84a2.446 2.446 0 011.706-.9h.367c.316.015.626.093.912.229a2.496 2.496 0 011.424 2.038 2.461 2.461 0 01-1.032 2.258l-.017-.008zm2.558-27.026a12.484 12.484 0 013.41-.79 8.423 8.423 0 013.616.417c-1.782.492-5.968 1.834-7.026 3.888a.27.27 0 00.11.389.274.274 0 00.146.027 8.383 8.383 0 013.888 1.062c-1.517.28-4.63 1.044-5.534 2.793a.28.28 0 000 .28.28.28 0 00.256.136 5.394 5.394 0 013.556 1.358c-1.296.11-4.22.527-4.971 1.945a.288.288 0 000 .305.265.265 0 00.29.11 3.425 3.425 0 013.001.85 4.79 4.79 0 00-2.331.653 4.763 4.763 0 00-1.71 1.707.287.287 0 000 .297.29.29 0 00.272.128 4.586 4.586 0 012.337.458 12.866 12.866 0 00-3.215 5.001c-.605-4.075-2.498-17.787 3.973-21.005l-.068-.009zM19.49 19.121a5.782 5.782 0 012.609-1.758.29.29 0 00.205-.22.296.296 0 00-.111-.28 6.103 6.103 0 00-5.969-.756c.69-2.123 3.12-2.547 3.232-2.598a.273.273 0 00.23-.204.305.305 0 00-.094-.297c-1.586-1.325-5.363-.298-6.821.17a6.808 6.808 0 013.607-3.482.282.282 0 00.187-.22.296.296 0 00-.094-.272c-1.944-1.656-6.173-.951-7.963-.552a10.694 10.694 0 014.212-3.286.29.29 0 00.187-.22.279.279 0 00-.093-.272c-2.311-1.936-8.1-1.418-10.232-1.155C5.804.61 11.107.629 11.158.629c9.311.712 13.72 18.33 14.726 23.026a16.2 16.2 0 00-6.361-4.526l-.034-.008zm-.128 7.854a4.861 4.861 0 010-2.548.28.28 0 00-.077-.288.281.281 0 00-.29-.068 5.116 5.116 0 00-2.14 1.452 5.086 5.086 0 00-1.151 2.31 3.616 3.616 0 01-.281-3.355.27.27 0 000-.297.29.29 0 00-.299-.085c-1.654.484-2.677 3.498-3.044 4.797a5.65 5.65 0 01-.733-4.024.286.286 0 00-.085-.272.264.264 0 00-.282-.068c-2.029.586-3.47 3.736-4.05 5.239a8.98 8.98 0 01-.35-4.33.28.28 0 00-.076-.28.282.282 0 00-.282-.068c-2.395.713-4.664 4.84-5.525 6.563-.622-3.643 1.782-7.26 1.8-7.285C3.944 22.5 6.272 21.66 8.932 21.43c6.011-.51 13.643 2.14 16.465 3.201a13.753 13.753 0 00-6.037 2.344zm4.945-1.571l-.145.136h-.255l.4-.136zM21.211 28.8a2.478 2.478 0 01.582-1.818 2.499 2.499 0 011.703-.873h.256v.042c0 .042-.043.093-.068.136-.058.116-.11.235-.154.356l-.05.179c-.035.12-.06.241-.078.365v.161a2.993 2.993 0 00.077 1.01c0 .052 0 .102.043.153l.102.289.077.161c.04.085.086.167.136.247l.103.16c.049.075.103.146.162.213l.128.145c.06.069.126.134.196.195l.145.119c.073.061.15.118.23.17l.145.093c.123.07.251.129.383.178a2.477 2.477 0 01-1.398.577 2.518 2.518 0 01-1.863-.586 2.496 2.496 0 01-.874-1.74l.017.068zm24.855 37.605a3.806 3.806 0 01-.298 3.396c-1.117 1.936-4.494 4.424-14.214 5.256-11.937 1.01-15.203-1.945-16.098-3.804a3.646 3.646 0 01.204-3.702 7.64 7.64 0 001.228-1.893c.853-1.699 1.748-3.447 7.512-5.239-.11.433-.23.849-.35 1.308a2.706 2.706 0 00.921 2.835 8.309 8.309 0 006.105 1.75 8.158 8.158 0 001.944-.408 5.271 5.271 0 002.471-1.652 5.236 5.236 0 001.179-2.72v-.06c0-.178-.077-1.062-.213-2.428a12.818 12.818 0 015.714 2.449 12.745 12.745 0 013.878 4.844l.017.068zM31.69 27.178a2.48 2.48 0 01-1.34 2.422c-.291.15-.61.242-.936.27a2.448 2.448 0 01-.853-.068c.051-.043.085-.093.137-.144l.068-.077a3.88 3.88 0 00.222-.297c.06-.093.11-.195.162-.289l.05-.11c0-.077.06-.153.086-.238.025-.085 0-.085.042-.127.025-.078.045-.157.06-.238V27.9a.605.605 0 000-.119 2.866 2.866 0 000-.382c0-.127 0-.246-.06-.373-.06-.128 0-.077 0-.12 0-.042-.042-.16-.068-.237l-.05-.136a2.254 2.254 0 00-.163-.34c0-.068-.077-.135-.12-.203l-.076-.11a1.449 1.449 0 00-.179-.221l-.051-.068a3.497 3.497 0 00-.256-.247l-.102-.076-.145-.119c.254-.11.525-.18.801-.204a2.506 2.506 0 011.823.52c.516.405.85.997.931 1.645l.017.068zM47.5 16.99a.298.298 0 00-.24.161.295.295 0 000 .289 9.937 9.937 0 011.416 4.67c-1.168-1.274-3.947-3.991-6.284-3.787a.273.273 0 00-.23.161.295.295 0 000 .289 6.32 6.32 0 01.853 4.5c-.853-1.155-3.172-3.898-5.074-3.728a.273.273 0 00-.247.187.262.262 0 00.068.297 3.995 3.995 0 011.058 3.626 5.654 5.654 0 00-2.114-1.908 5.682 5.682 0 00-2.78-.64.308.308 0 00-.256.17.288.288 0 00.042.298 5.252 5.252 0 011.023 2.683 14.7 14.7 0 00-4.86-.374c-.79.072-1.573.2-2.345.382 3.411-3.099 16.073-13.95 23.44-9.56.043 0 4.041 2.81 4.834 6.852-1.483-1.444-5.55-4.849-8.304-4.61v.042z" fill="#999"/><path d="M100.336 19.49c-7.895-4.694-20.915 6.615-24.224 9.697a12.153 12.153 0 013.36-5.094.288.288 0 00.11-.238.262.262 0 00-.119-.22 4.592 4.592 0 00-2.472-.782 4.46 4.46 0 013.803-1.622.274.274 0 00.314-.28.304.304 0 00-.042-.153 3.603 3.603 0 00-3.223-1.596c1.117-.849 3.65-1.154 4.673-1.188a.282.282 0 00.276-.325.29.29 0 00-.063-.142 5.773 5.773 0 00-3.897-1.979c1.416-1.698 5.61-2.207 5.654-2.216a.274.274 0 00.247-.22.272.272 0 00-.145-.357 10.261 10.261 0 00-4.408-1.537c1.705-2.106 7.128-3.396 7.188-3.396a.29.29 0 00.221-.246.287.287 0 00-.153-.29c-3.633-1.884-8.067-.05-8.271 0-5.116 2.548-5.346 10.996-4.81 16.846-2.011-7.106-6.386-18.238-14.12-18.823-.255 0-6.283 0-9.591 3.88a.28.28 0 000 .322.298.298 0 00.298.145c.077 0 7.282-1.163 10.232.62a12.56 12.56 0 00-4.51 3.93.296.296 0 000 .34.29.29 0 00.315.11c.06 0 5.406-1.485 7.861-.042a7.2 7.2 0 00-2.27 1.722 7.166 7.166 0 00-1.422 2.464.278.278 0 00.077.297.274.274 0 00.298.06c1.27-.467 4.58-1.393 6.285-.764a4.496 4.496 0 00-2.048 1.262 4.467 4.467 0 00-1.099 2.134.287.287 0 00.12.28.308.308 0 00.306 0 5.638 5.638 0 015.423.153 5.759 5.759 0 00-2.617 2.114.27.27 0 000 .255.297.297 0 00.187.178 15.4 15.4 0 016.48 4.44c-4.212-1.621-18.502-6.503-23.516 0-.12.179-2.941 4.416-1.705 8.568a.289.289 0 00.256.203h.042a.3.3 0 00.24-.17c0-.059 2.489-5.527 5.064-6.792a10.648 10.648 0 00.716 4.925.28.28 0 00.273.186.29.29 0 00.273-.203c0-.043 1.407-4.356 3.504-5.468a6.054 6.054 0 001.28 4.483.281.281 0 00.29.093.273.273 0 00.212-.212c.248-1.07 1.075-3.702 2.243-4.67a3.79 3.79 0 001.006 3.71.3.3 0 00.298.06.297.297 0 00.188-.246c.09-.768.366-1.502.804-2.14a4.776 4.776 0 011.711-1.52 4.804 4.804 0 00.307 2.751.27.27 0 00.196.162.292.292 0 00.248-.06c.673-.526 1.41-.968 2.191-1.316a3.04 3.04 0 00-.972 2.488c.07.81.459 1.558 1.082 2.082.624.523 1.43.78 2.243.711a3.033 3.033 0 001.79-.79c.726 1.885 3.497 10.92-1.193 28.868-6.327 1.894-7.333 3.88-8.21 5.638a6.988 6.988 0 01-1.126 1.758 4.174 4.174 0 00-.299 4.347c1.168 2.428 5.014 5.094 16.661 4.118 8.015-.68 12.952-2.547 14.674-5.553a4.31 4.31 0 00.307-3.863c-1.705-4.059-6.07-7.344-10.232-7.744-.665-6.546-2.703-21.888-7.529-28.019.205.022.41.022.614 0a3.091 3.091 0 002.092-1.082 3.042 3.042 0 00.037-3.899 3.062 3.062 0 00-1.498-.996 13.84 13.84 0 014.886.45.282.282 0 00.247 0 .27.27 0 00.128-.22 5.265 5.265 0 00-.852-2.98 5.258 5.258 0 012.422.857 5.23 5.23 0 011.721 1.902.289.289 0 00.256.16.29.29 0 00.256-.16 4.136 4.136 0 00-.512-4.246c1.603.467 3.582 2.887 4.264 3.906a.298.298 0 00.264.127.282.282 0 00.23-.203 6.656 6.656 0 00-.528-5.095c2.617.255 5.84 4.17 5.874 4.245a.299.299 0 00.324.094.273.273 0 00.188-.28 11.676 11.676 0 00-1.279-5.358c3.163.238 7.964 4.908 8.015 4.959a.283.283 0 00.324.05.28.28 0 00.162-.28c-.367-4.729-4.962-7.93-5.176-8.074zM85.082 66.708a4.669 4.669 0 01-1.058 2.423 4.7 4.7 0 01-2.207 1.466c-2.422.849-5.841.288-7.461-1.223a2.224 2.224 0 01-.759-2.267l.205-.747a16.58 16.58 0 006.565 1.01 6.774 6.774 0 004.596-2.055c.077.773.11 1.266.12 1.393zm-.196-2.207c-2.924 3.914-9.6 1.782-10.94 1.299.393-1.444.737-2.83 1.032-4.16a8.161 8.161 0 005.04 1.17 11.116 11.116 0 004.519-1.502c.145 1.24.264 2.326.35 3.192zm-.426-3.813c-5.116 3.057-8.629.85-9.38.348.29-1.333.53-2.606.743-3.82a11.13 11.13 0 004.263.5 9.032 9.032 0 003.743-1.146c.281 1.47.469 2.904.63 4.118zm-8.527-4.05c.213-1.273.384-2.496.512-3.642 1.128.41 2.333.57 3.53.467a7.843 7.843 0 003.18-.977c.23 1.18.427 2.344.606 3.473a9.734 9.734 0 01-7.81.68h-.018zm.572-4.245c.11-1.087.196-2.123.247-3.1.963.32 1.981.44 2.993.357a6.337 6.337 0 002.651-.849c.23 1.01.452 2.038.648 3.049a7.647 7.647 0 01-6.522.551l-.017-.008zm.281-3.702c0-.908.051-1.766.043-2.547.63.114 1.272.145 1.91.093a5.257 5.257 0 002.728-.985c.281.985.546 1.996.784 3.014a6.525 6.525 0 01-5.448.434l-.017-.009zm.043-3.167c0-1.01-.069-1.936-.145-2.785.458.103.93.135 1.398.093a4.925 4.925 0 002.353-.849c.299.85.589 1.699.853 2.624a5.605 5.605 0 01-4.442.925l-.017-.008zm-.197-3.396a34.361 34.361 0 00-.255-1.962c.27.027.54.027.81 0a3.82 3.82 0 002.148-.849c.316.671.606 1.384.896 2.123a4.143 4.143 0 01-3.581.696l-.018-.008zm-.35-2.547a28.636 28.636 0 00-.383-1.767c.176.018.353.018.529 0a2.673 2.673 0 001.705-.772c.356.547.68 1.114.972 1.698a3.413 3.413 0 01-2.805.85l-.017-.01zm-.553-2.378a15.79 15.79 0 00-.418-1.265h.366c.453-.041.89-.183 1.28-.416.304.326.588.669.852 1.027a2.16 2.16 0 01-2.063.663l-.017-.009zm1.117-2.284a2.564 2.564 0 01-1.936.4 2.5 2.5 0 01-1.364-.784 2.482 2.482 0 01-.52-2.393 2.43 2.43 0 01.46-.84 2.444 2.444 0 011.706-.9h.366a2.496 2.496 0 012.336 2.267 2.461 2.461 0 01-1.031 2.259l-.017-.009zm2.558-27.025a12.484 12.484 0 013.41-.79 8.423 8.423 0 013.616.416c-1.783.493-5.97 1.834-7.026 3.889a.27.27 0 00.11.388.275.275 0 00.145.028 8.385 8.385 0 013.889 1.061c-1.518.28-4.63 1.045-5.534 2.794a.28.28 0 000 .28.282.282 0 00.256.136 5.393 5.393 0 013.555 1.358c-1.296.11-4.22.527-4.97 1.945a.288.288 0 000 .305.265.265 0 00.29.11 3.425 3.425 0 013 .85 4.79 4.79 0 00-2.331.652 4.764 4.764 0 00-1.71 1.708.287.287 0 000 .297.289.289 0 00.273.128 4.587 4.587 0 012.336.458 12.864 12.864 0 00-3.214 5C74.893 24.832 73 11.12 79.472 7.902l-.068-.008zM68.515 24.449a5.782 5.782 0 012.61-1.757.29.29 0 00.204-.22.295.295 0 00-.11-.281 6.103 6.103 0 00-5.97-.756c.691-2.122 3.121-2.547 3.232-2.598a.274.274 0 00.224-.365.305.305 0 00-.087-.136c-1.586-1.324-5.364-.297-6.822.17a6.808 6.808 0 013.607-3.481.28.28 0 00.188-.22.296.296 0 00-.094-.273c-1.944-1.655-6.173-.95-7.964-.552a10.695 10.695 0 014.212-3.285.29.29 0 00.188-.221.28.28 0 00-.094-.272c-2.31-1.936-8.1-1.418-10.232-1.155 3.223-3.107 8.527-3.09 8.578-3.09 9.31.713 13.719 18.331 14.725 23.026a16.199 16.199 0 00-6.36-4.525l-.035-.009zm-.128 7.854a4.863 4.863 0 010-2.547.278.278 0 00-.076-.289.281.281 0 00-.29-.068 5.117 5.117 0 00-2.14 1.452 5.087 5.087 0 00-1.152 2.31 3.615 3.615 0 01-.281-3.354.27.27 0 000-.297.29.29 0 00-.298-.085c-1.655.484-2.678 3.498-3.044 4.797a5.652 5.652 0 01-.734-4.024.288.288 0 00-.085-.272.265.265 0 00-.281-.068c-2.03.586-3.47 3.736-4.05 5.239a8.98 8.98 0 01-.35-4.33.279.279 0 00-.077-.28.282.282 0 00-.281-.069c-2.396.713-4.664 4.84-5.525 6.563-.623-3.642 1.782-7.259 1.799-7.284 1.45-1.868 3.777-2.709 6.437-2.938 6.011-.51 13.643 2.14 16.465 3.2a13.752 13.752 0 00-6.037 2.344zm4.946-1.57l-.145.135h-.256l.4-.136zm-3.095 3.396a2.48 2.48 0 011.345-2.424c.293-.15.612-.241.94-.268h.255v.043c0 .042-.042.093-.068.135-.058.116-.11.235-.153.357l-.051.178c-.035.12-.06.242-.077.365v.162a2.992 2.992 0 00.077 1.01c0 .051 0 .102.042.153l.103.289.076.161a2.3 2.3 0 00.137.246l.102.161c.05.075.103.146.162.213l.128.144c.061.07.126.135.196.195l.145.12c.073.06.15.117.23.17l.145.093c.123.069.251.129.384.178a2.478 2.478 0 01-1.398.577 2.517 2.517 0 01-1.863-.587 2.497 2.497 0 01-.874-1.74l.017.069zm24.855 37.604a3.806 3.806 0 01-.299 3.397c-1.117 1.936-4.493 4.423-14.214 5.255-11.937 1.01-15.203-1.944-16.098-3.803a3.647 3.647 0 01.205-3.702 7.636 7.636 0 001.228-1.894c.852-1.698 1.748-3.447 7.511-5.238-.11.433-.23.849-.35 1.307a2.706 2.706 0 00.922 2.836 8.307 8.307 0 006.105 1.749 8.16 8.16 0 001.944-.407 5.271 5.271 0 002.47-1.652 5.235 5.235 0 001.18-2.721v-.06c0-.178-.078-1.06-.214-2.428a12.817 12.817 0 015.715 2.45 12.745 12.745 0 013.878 4.843l.017.068zM80.716 32.507a2.476 2.476 0 01-.579 1.815 2.495 2.495 0 01-1.698.877 2.45 2.45 0 01-.852-.069c.05-.042.085-.093.136-.144l.068-.076c.077-.094.154-.195.222-.297.06-.094.11-.196.162-.29l.051-.11c0-.076.06-.152.085-.237.026-.085 0-.085.043-.127a1.95 1.95 0 00.06-.238v-.382a.605.605 0 000-.12 2.866 2.866 0 000-.381c0-.128 0-.247-.06-.374s0-.076 0-.119c0-.042-.043-.161-.068-.238l-.052-.135a2.307 2.307 0 00-.162-.34c0-.068-.076-.136-.119-.204l-.077-.11a1.45 1.45 0 00-.179-.22l-.05-.069a3.518 3.518 0 00-.257-.246l-.102-.076-.145-.12a2.58 2.58 0 01.802-.203 2.506 2.506 0 011.823.52c.515.405.85.996.93 1.645l.018.068zm15.808-10.189a.3.3 0 00-.239.162.295.295 0 000 .288 9.938 9.938 0 011.416 4.67c-1.168-1.273-3.948-3.99-6.284-3.787a.273.273 0 00-.23.162.295.295 0 000 .288 6.32 6.32 0 01.852 4.5c-.853-1.154-3.172-3.897-5.073-3.727a.273.273 0 00-.248.187.262.262 0 00.069.297 3.995 3.995 0 011.057 3.625 5.654 5.654 0 00-2.114-1.908 5.683 5.683 0 00-2.78-.639.308.308 0 00-.256.17.287.287 0 00.043.297 5.25 5.25 0 011.023 2.683 14.7 14.7 0 00-4.86-.373c-.79.072-1.574.2-2.345.382 3.41-3.1 16.072-13.95 23.44-9.56.042 0 4.041 2.81 4.834 6.851-1.484-1.443-5.55-4.848-8.305-4.61v.042z" fill="#999"/></svg>