<svg width="18" height="18" fill="none" xmlns="http://www.w3.org/2000/svg"><path d="M14.567.934H2.5a2.503 2.503 0 00-2.5 2.5V15.5C0 16.88 1.122 18 2.5 18h12.067c1.378 0 2.5-1.121 2.5-2.5V3.434c0-1.379-1.122-2.5-2.5-2.5zm1.5 14.566c0 .827-.673 1.5-1.5 1.5H2.5c-.827 0-1.5-.673-1.5-1.5V3.434c0-.827.673-1.5 1.5-1.5h12.067c.827 0 1.5.673 1.5 1.5V15.5z" fill="#444"/><path d="M13.533 3.967a.501.501 0 11.5.5.501.501 0 01-.5-.5z" fill="#444" stroke="#000"/><path d="M8.533 4.967a4.505 4.505 0 00-4.5 4.5c0 2.481 2.02 4.5 4.5 4.5 2.482 0 4.5-2.019 4.5-4.5 0-2.482-2.018-4.5-4.5-4.5zm0 8c-1.93 0-3.5-1.57-3.5-3.5s1.57-3.5 3.5-3.5 3.5 1.57 3.5 3.5-1.57 3.5-3.5 3.5z" fill="#444"/></svg>