<svg width="11" height="10" fill="none" xmlns="http://www.w3.org/2000/svg"><path d="M10.878 1.773c-.387.17-.8.283-1.23.337.443-.264.78-.679.94-1.179-.413.246-.868.42-1.353.517a2.133 2.133 0 00-3.69 1.459c0 .169.014.331.049.486A6.039 6.039 0 011.196 1.16a2.137 2.137 0 00.656 2.851 2.107 2.107 0 01-.964-.262v.023c0 1.037.74 1.898 1.71 2.097a2.13 2.13 0 01-.56.07c-.137 0-.275-.008-.404-.036A2.154 2.154 0 003.627 7.39a4.287 4.287 0 01-3.155.88c.945.61 2.065.958 3.273.958 3.925 0 6.072-3.252 6.072-6.071 0-.094-.004-.186-.008-.276.423-.3.78-.676 1.07-1.108z" fill="#444"/></svg>