<svg width="130" height="24" fill="none" xmlns="http://www.w3.org/2000/svg"><path d="M.528 8.288V3.2h14.76v5.088h-1.464l-.984-3.24H9.864v13.08l2.208.528V20H3.744v-1.344l2.208-.528V5.048h-3l-.984 3.24H.528zM16.52 20v-1.272l2.04-.48v-8.064h-2.04V8.912L20.36 8h1.896v1.44c1.2-1.2 2.624-1.8 4.272-1.8.096.304.144.64.144 1.008a8.49 8.49 0 01-.24 2.064l-3.024-.504a4.814 4.814 0 00-1.152.768v7.272l2.52.48V20H16.52zm11.347-2.976c0-1.392.568-2.448 1.704-3.168 1.152-.736 3.008-1.104 5.568-1.104v-.72c0-.48-.008-.824-.024-1.032a3.92 3.92 0 00-.096-.792c-.064-.304-.16-.52-.288-.648-.112-.128-.288-.24-.528-.336-.24-.112-.536-.168-.888-.168l-3.048 2.64c-1.088-.624-1.632-1.592-1.632-2.904l.72-.312c.304-.128.896-.296 1.776-.504.88-.224 1.736-.336 2.568-.336 3.44 0 5.16 1.376 5.16 4.128V18.2h1.872v1.032c-.08.08-.192.184-.336.312-.144.128-.456.296-.936.504-.48.208-.976.312-1.488.312-1.216 0-2.12-.408-2.712-1.224-1.072.816-2.24 1.224-3.504 1.224-1.104 0-2.032-.28-2.784-.84-.736-.56-1.104-1.392-1.104-2.496zm3.864-.216c0 .464.152.832.456 1.104.32.272.704.408 1.152.408.72 0 1.32-.264 1.8-.792V14.24c-.896 0-1.688.24-2.376.72-.688.464-1.032 1.08-1.032 1.848zm8.863-13.824V1.712L44.434.8h1.896v8.064c.992-.816 2.144-1.224 3.456-1.224 1.488 0 2.688.496 3.6 1.488.928.976 1.392 2.448 1.392 4.416 0 1.456-.376 2.712-1.128 3.768-.736 1.056-1.656 1.832-2.76 2.328-1.088.48-2.264.72-3.528.72-1.824 0-3.4-.408-4.728-1.224V2.984h-2.04zm5.736 15.744c.192.032.464.048.816.048 1.088 0 1.992-.44 2.712-1.32.736-.88 1.104-2.152 1.104-3.816 0-2.64-.808-3.96-2.424-3.96-.624 0-1.36.24-2.208.72v8.328zm16.713 1.632a6.85 6.85 0 01-2.568-.48 6.316 6.316 0 01-2.04-1.32 6.16 6.16 0 01-1.368-2.016 6.45 6.45 0 01-.504-2.568c0-.928.168-1.776.504-2.544a6.16 6.16 0 011.368-2.016 6.004 6.004 0 012.04-1.296 6.85 6.85 0 012.568-.48c.912 0 1.76.16 2.544.48a6.004 6.004 0 012.04 1.296 5.705 5.705 0 011.368 2.016c.336.768.504 1.616.504 2.544a6.39 6.39 0 01-.504 2.544 5.948 5.948 0 01-1.368 2.04c-.576.56-1.256 1-2.04 1.32-.784.32-1.632.48-2.544.48zm-2.616-6.384c0 1.504.216 2.688.648 3.552.448.848 1.104 1.272 1.968 1.272.864 0 1.512-.424 1.944-1.272.448-.864.672-2.048.672-3.552 0-1.488-.224-2.656-.672-3.504-.432-.848-1.08-1.272-1.944-1.272-.864 0-1.52.424-1.968 1.272-.432.848-.648 2.016-.648 3.504zM77.72 20.36a6.85 6.85 0 01-2.568-.48 6.316 6.316 0 01-2.04-1.32 6.16 6.16 0 01-1.368-2.016 6.45 6.45 0 01-.504-2.568c0-.928.168-1.776.504-2.544a6.16 6.16 0 011.368-2.016 6.004 6.004 0 012.04-1.296 6.85 6.85 0 012.568-.48c.912 0 1.76.16 2.544.48a6.004 6.004 0 012.04 1.296 5.705 5.705 0 011.368 2.016c.336.768.504 1.616.504 2.544a6.39 6.39 0 01-.504 2.544 5.948 5.948 0 01-1.368 2.04c-.576.56-1.256 1-2.04 1.32-.784.32-1.632.48-2.544.48zm-2.616-6.384c0 1.504.216 2.688.648 3.552.448.848 1.104 1.272 1.968 1.272.864 0 1.512-.424 1.944-1.272.448-.864.672-2.048.672-3.552 0-1.488-.224-2.656-.672-3.504-.432-.848-1.08-1.272-1.944-1.272-.864 0-1.52.424-1.968 1.272-.432.848-.648 2.016-.648 3.504zM85.34 20v-1.272l2.04-.48V2.984h-2.04V1.712L89.181.8h1.896v17.448l1.56.48V20h-7.296zm6.168-5.784l4.224-4.584-1.44-.36V8h5.64v1.272l-2.184.456-2.76 3.048 3.384 5.496 1.92.456V20h-5.28l-3.504-5.784z" fill="#222"/><path d="M112.641 7.96c.153-.194.355-.458.516-.646.484-.52.547-.588.987-.972.131-.1.286-.223.437-.338-1.117.895-1.259 1.885-.234 2.497-.002 0-.002 0-.002.002 1.434.817 4.575.64 7.054-.406 2.401-1.014 3.288-2.463 2.103-3.324-1.041-.185-2.281-.206-3.593-.04l-.137-.213.113-.353c.772-.066 1.505-.05 2.138.052.153.025.355.067.505.097a11.291 11.291 0 011.288.375c.283.106.405.154.632.26.254.11.501.234.739.372 1.888 1.123.714 3.173-2.618 4.577-3.322 1.4-7.556 1.62-9.453.51-.001-.002-.004-.003-.009-.005h.004c-1.036-.62-1.145-1.521-.47-2.444zm8.644 7.854l-.026-1.262-.949-.997c-3.132.67-6.211.527-7.923-.427-.006-.007-.02-.013-.026-.02-.969-.564-1.209-1.292-1.136-2.084-.227 1.159-.245 1.577-.212 2.568.04.62.419 1.193 1.181 1.644l.006.006c1.825 1.074 5.628 1.307 9.085.572zm3.955 1.445c-4.422 1.677-9.955 1.776-12.359.224.26.6.613 1.16 1.048 1.66 2.206 1.426 7.285 1.335 11.342-.205 2.374-.9 3.872-2.098 4.265-3.22l.111-.339c.262-.856.311-1.57.353-2.204-.048 1.378-1.764 2.945-4.76 4.084zm-9.76 3.23c.139.126.576.633 2.789 1.194.599.125 2.105.526 4.888-.058l.016-.24-.22-.326c-2.581.578-5.45.385-7.473-.57zm6.389-9.982l2.351 1.686s.503.343.028.583c-.473.239-1.687.822-1.687.822l-1.199-.424-.602.254 1.061.871.008 1.357.624-.263.413-1.145s1.27-.462 1.774-.636c.506-.17.438.412.438.412l-.249 2.78.828-.349 1.364-3.75s.724-.332 1.232-.625c.508-.292.682-.776.682-.776s-.495-.202-1.066-.04c-.57.16-1.315.447-1.315.447l-3.859-1.55-.826.346zm-4.974-5.332l1.596 1.202.436-.061-.869-1.08s-.189-.223.066-.276c.256-.054.903-.179.903-.179l.488.368.328-.046-.372-.558.196-.62-.317.043-.376.472s-.66.059-.919.08c-.261.018-.149-.247-.149-.247l.5-1.273-.438.061-1.155 1.59s-.385.067-.664.142c-.279.075-.426.279-.426.279s.205.157.493.151c.292-.006.679-.048.679-.048zm7.888 15.451l-1.033-.51-.238.078.612.518s.131.105-.007.162c-.137.055-.487.191-.487.191l-.288-.122-.172.059.24.242-.023.354.179-.059.134-.287s.363-.102.508-.139c.144-.037.111.123.111.123l-.136.764.238-.078.468-1.01s.207-.077.355-.148c.148-.07.207-.2.207-.2s-.132-.068-.294-.034c-.163.032-.374.096-.374.096z" fill="#666"/></svg>