<svg width="48" height="48" fill="none" xmlns="http://www.w3.org/2000/svg"><path d="M1.772.163c-.265.097-.64.36-.934.653-.915.908-.836-.936-.836 19.329 0 20.274-.07 18.528.816 19.406.895.887-.01.82 12.993.907l11.409.078.62 2.38c.334 1.308.717 2.577.835 2.82.315.615.945 1.279 1.564 1.65 1.003.594 1.22.614 6.285.614 4.879 0 5.184-.03 6.118-.498.53-.273 1.318-1.005 1.623-1.531.521-.878.62-1.435.62-3.532v-1.932l1.357-.059c1.77-.087 2.281-.244 2.94-.897.886-.878.817.858.817-19.358s.069-18.479-.817-19.367c-.924-.917 1.426-.83-23.221-.82-19.543 0-21.795.02-22.189.157zM46.091 1.42c.147.108.364.322.472.469.197.253.206.41.236 3.483l.03 3.21H1.181V5.519c0-3.18.03-3.424.423-3.854.482-.517-.846-.488 22.513-.468l21.707.02.266.204zm.727 22.421c0 9.728-.029 14.177-.108 14.372-.147.38-.56.79-.914.898-.168.048-.895.126-1.604.156l-1.308.068v-1.298c0-1.531-.118-1.892-.787-2.449-.56-.478-1.16-.614-1.908-.42l-.54.147-.473-.468c-.59-.585-1.2-.79-1.888-.634a3.54 3.54 0 00-.6.166c-.098.039-.197-.04-.315-.225-.088-.156-.344-.41-.58-.566-.344-.224-.521-.273-1.013-.273-.334 0-.698.04-.826.078l-.217.078v-4.215c0-4.078-.01-4.234-.206-4.644-.433-.898-1.534-1.424-2.508-1.21-.708.156-1.24.566-1.554 1.19l-.256.518v12.138l-.6-.616c-.875-.907-1.859-1.375-3.285-1.55-.55-.07-1.033.126-1.298.516-.286.41-.286.742-.02 1.347.226.526.875 2.253.875 2.341 0 .108-22.424-.068-22.71-.175a1.627 1.627 0 01-.855-.84c-.118-.263-.138-2.692-.138-14.42V9.754h45.637v14.088zm-14.91.78c.679.284.65.079.65 5.338 0 6.108.078 8.84.265 9.025.216.214.678.166.855-.078.128-.176.158-.556.158-2.108 0-1.873 0-1.883.246-2.117.255-.263.708-.322 1.042-.137.393.205.462.586.403 2.39-.039 1.484-.03 1.718.118 1.942.138.215.236.254.531.225.532-.04.61-.264.61-1.903v-1.375l.305-.254c.404-.342.787-.332 1.19.03l.325.282.05 1.834c.048 1.825.048 1.844.284 1.952.295.146.61.039.768-.264.078-.146.127-.673.127-1.405 0-1.317.079-1.522.63-1.707.403-.127.737-.02 1.032.351.217.273.217.293.187 4.127l-.03 3.864-.265.488c-.334.634-.993 1.239-1.613 1.473-.452.176-.796.185-5.301.185-4.711 0-4.83 0-5.272-.205-.61-.282-1.21-.839-1.465-1.346-.108-.234-.551-1.785-.984-3.454-.698-2.702-1.24-4.449-1.633-5.2-.068-.147-.108-.283-.078-.303.098-.097 1.052.117 1.593.361.718.322 1.269.859 1.997 1.922l.58.85v1.18c0 1.044.02 1.19.197 1.366.246.244.403.244.728-.01l.255-.195V33.55c0-8.84-.01-8.586.512-8.84.511-.253.59-.253 1.003-.087z" fill="#FA7436"/><path d="M4.526 2.621c-.521.108-.924.351-1.308.8-.59.683-.698 1.6-.265 2.43.816 1.57 3.137 1.58 3.953.01.876-1.66-.55-3.6-2.38-3.24zM5.588 3.9c.099 0 .414.683.414.908 0 .936-1.082 1.395-1.79.76-.827-.731-.03-2.048 1.052-1.746.157.04.305.078.324.078zm4.839-1.25c-1.662.303-2.34 2.46-1.16 3.708.806.849 2.31.898 3.157.098.875-.83.964-2.147.197-3.035-.58-.673-1.319-.936-2.194-.77zm1.23 1.454c.245.234.295.361.295.732 0 .38-.05.488-.325.732-.708.634-1.79.175-1.79-.761 0-.42.335-.888.708-.986.453-.127.767-.049 1.112.283zm4.8-1.463c-2.194.41-2.499 3.396-.423 4.264.54.224 1.554.127 2.055-.205.63-.42.935-.946.974-1.737.03-.536 0-.75-.177-1.102a2.223 2.223 0 00-2.43-1.22zm1.229 1.503c.334.39.305 1.054-.069 1.424-.236.225-.374.283-.728.283-.747 0-1.239-.605-1.042-1.307.236-.82 1.269-1.044 1.839-.4zm7.79.019c-.394.137-.522.673-.217.937.167.156 1.003.166 10.032.166h9.855l.158-.244c.206-.313.118-.664-.207-.81-.187-.088-2.714-.117-9.865-.107-5.281 0-9.678.029-9.756.058zm-13.927 11.61c-.797.956-1.466 1.756-1.476 1.776-.02.02-.275-.176-.58-.42-.305-.244-.62-.449-.689-.449-.078 0-.255.098-.403.225-.403.341-.275.624.61 1.327.728.585 1.033.692 1.456.536.275-.107 3.403-3.902 3.403-4.136 0-.39-.177-.586-.531-.586-.315 0-.433.117-1.79 1.727z" fill="#FA7436"/><path d="M6.286 14.584c-.462.253-.491.468-.462 3.698l.03 3.005.275.234.275.234H12.7l.236-.244c.236-.224.246-.283.246-1.493 0-1.093-.02-1.278-.177-1.415-.246-.224-.57-.204-.807.03-.167.166-.196.322-.196 1.073v.878H6.985l.02-2.468.029-2.46 1.377-.028c1.259-.02 1.387-.04 1.554-.225.226-.283.216-.439-.079-.722-.236-.234-.265-.244-1.79-.244-1.15.01-1.623.04-1.81.147zm12.894.312c-.481.175-.639.653-.314.936.167.156 1.14.166 11.95.166 10.563 0 11.773-.02 11.91-.156.168-.156.207-.498.08-.693-.04-.058-.197-.166-.345-.214-.295-.108-22.985-.147-23.28-.04zm-.294 5.004c-.246.244-.256.605-.02.81.167.156 1.14.166 11.94.166 11.262 0 11.763-.01 11.91-.176.227-.244.207-.566-.029-.8-.196-.195-.324-.195-11.9-.195-11.577 0-11.705 0-11.901.195zm-7.239 8.167c-.748.898-1.416 1.698-1.475 1.776-.099.127-.177.098-.541-.195-.738-.595-1.023-.644-1.358-.244-.236.283-.039.624.738 1.23.875.692 1.23.76 1.702.312.167-.147.934-1.035 1.72-1.971 1.486-1.766 1.633-2.04 1.28-2.38-.08-.089-.276-.157-.423-.157-.236 0-.473.234-1.643 1.63z" fill="#FA7436"/><path d="M6.533 26.896c-.118.02-.315.146-.443.283l-.236.253v6.206l.236.253.236.254H12.7l.236-.244c.236-.224.245-.283.245-1.502 0-1.2-.01-1.279-.216-1.415-.305-.215-.531-.195-.767.058-.167.176-.197.342-.197 1.074v.858H6.985l.02-2.468.03-2.459 1.396-.03c1.377-.019 1.406-.029 1.564-.272.206-.303.069-.683-.315-.82-.236-.098-2.715-.117-3.147-.03zm12.323.595c-.207.225-.216.508-.03.761.138.176.315.186 3.964.215 2.095.01 3.915 0 4.033-.03.501-.116.688-.653.344-.955-.167-.147-.6-.166-4.17-.166-3.738 0-3.994.01-4.141.175zm18.166.069c-.187.282-.108.585.207.79.187.127.63.136 2.803.117 2.42-.03 2.587-.04 2.715-.215.186-.263.177-.585-.04-.77-.157-.147-.501-.166-2.852-.166H37.18l-.158.244zm-17.94 4.605c-.393.137-.52.673-.216.937.148.136.413.166 1.456.166 1.406 0 1.514-.04 1.514-.547 0-.527-.255-.624-1.524-.614-.59 0-1.15.029-1.23.058z" fill="#FA7436"/></svg>