<svg width="47" height="48" fill="none" xmlns="http://www.w3.org/2000/svg"><path d="M25.696.096a2.81 2.81 0 00-.638.348c-.15.122-3.015 4.235-6.358 9.146l-6.076 8.922-1.719.028-1.718.019.047-.3c.028-.17.206-1.85.385-3.738.178-1.888.347-3.606.375-3.822.057-.385.085-.414.723-.752.64-.338 1.54-1.108 1.916-1.653l.188-.272 2.714.282c1.84.178 2.808.244 2.977.188.526-.179.564-.986.056-1.202-.122-.057-1.455-.216-2.977-.367-3.061-.29-3.296-.281-3.747.216l-.76.817c-.282.31-.686.63-1.014.79-.836.403-1.127.657-1.278 1.098-.094.244-.31 2.085-.554 4.555l-.404 4.16h-.892l.047-.357c.028-.188.329-3.127.658-6.527.338-3.409.657-6.264.704-6.367.14-.263.404-.366.91-.366.245 0 2.753.235 5.56.516 4.527.451 5.147.489 5.372.376.45-.235.432-.977-.028-1.174-.122-.047-1.775-.235-3.69-.422-1.907-.188-4.349-.423-5.429-.536-1.09-.103-2.132-.16-2.357-.131-.855.131-1.587.864-1.756 1.775-.056.272-.32 2.751-.592 5.512l-.488 5.024-1.183.057c-1.015.037-1.25.084-1.634.282-.799.413-1.25 1.192-1.259 2.197-.01.45-.028.479-.45.751-.235.15-.573.46-.742.686-.63.826-.602.103-.573 13.645L.04 45.746l.225.488c.273.62 1.043 1.343 1.653 1.588.46.178.949.178 20.285.178h19.815l.488-.225c.583-.263 1.277-.968 1.56-1.587.197-.423.206-.573.234-4.039l.028-3.587h.348c.807 0 1.521-.404 1.765-1.005.103-.244.132-1.127.132-4.254 0-3.747-.01-3.972-.188-4.32-.282-.554-.676-.789-1.428-.826l-.638-.038v-3.4c0-2.854-.028-3.484-.15-3.906-.17-.564-.564-1.202-.93-1.484-.216-.169-.235-.254-.235-.883 0-.836-.282-1.502-.826-1.953-.395-.32-1.09-.564-1.634-.564h-.367l1.1-1.605c.61-.893 1.154-1.803 1.23-2.048a2.193 2.193 0 00-.602-2.178c-.14-.132-1.38-1.005-2.751-1.935-1.371-.93-4.517-3.08-6.997-4.77-2.479-1.691-4.63-3.137-4.78-3.212-.385-.198-1.249-.245-1.68-.085zm1.165 1.38c.573.301 13.88 9.439 14.105 9.673.413.442.348.667-.563 2.02-.46.666-1.456 2.15-2.235 3.296l-1.409 2.084-.545.01h-.535l1.099-1.606c.6-.892 1.145-1.775 1.22-1.981.142-.423.085-.742-.31-1.672-.215-.517-.262-.76-.281-1.625-.019-.836-.066-1.07-.225-1.324-.132-.225-1.296-1.07-4.001-2.911-2.094-1.428-3.907-2.639-4.038-2.686-.413-.16-.845-.103-1.606.207-.639.263-.855.3-1.737.319-1.184.028-1.522.15-1.926.723-.16.216-2.113 3.08-4.348 6.358-2.235 3.277-4.113 6.02-4.17 6.085-.074.075-.29.113-.6.094l-.47-.028 5.72-8.405c3.145-4.62 5.812-8.48 5.916-8.574.225-.179.657-.207.939-.056zm5.578 7.11l3.569 2.432.056 1.023c.047.799.113 1.165.31 1.681.14.357.263.724.272.799.01.084-.573 1.023-1.296 2.094l-1.314 1.934-1.174.01h-1.184l-.103-.63c-.15-.863-.76-2.046-1.4-2.741-.675-.733-1.398-1.203-2.366-1.54-1.962-.677-4.31-.123-5.756 1.361-.808.826-1.419 2-1.569 3.015l-.066.488-1.718.028c-1.38.019-1.71 0-1.653-.094.047-.066 1.869-2.751 4.057-5.973l3.982-5.84h.883c.676 0 1.042-.057 1.605-.236.404-.131.799-.272.864-.319a.276.276 0 01.282-.01c.085.048 1.756 1.175 3.72 2.518zm-5.353 6.264c.76.206 1.39.563 1.963 1.136.592.591.948 1.22 1.127 1.99l.131.583h-8.536l.066-.357c.431-2.376 2.901-3.963 5.25-3.353zM5.684 17.63c-.028.159-.056.44-.056.61v.319H3.186v-.338c0-.244.075-.404.272-.61.273-.264.3-.273 1.277-.273H5.75l-.066.291zm35.564-.095c.272.207.526.892.385 1.005-.047.038-.789.056-1.653.038l-1.568-.029.394-.6.395-.61h.901c.77 0 .94.027 1.146.196zm.977 2.77c.591.47.685.761.685 2.076v1.155H1.402v-1.174c0-.835.037-1.258.131-1.436.17-.33.601-.733.902-.855.15-.056 6.958-.085 19.833-.075l19.59.019.367.29zm.685 6.236v1.597h-3.54c-2.836 0-3.672.028-4.151.14-1.644.395-3.052 1.654-3.672 3.288-.263.704-.357 2.14-.188 2.873.423 1.822 1.813 3.306 3.663 3.898.441.14 1.023.169 4.207.206l3.681.038v3.174H26.025c-16.81 0-16.895 0-17.064.188-.216.244-.216.695 0 .939.17.188.254.188 17.064.188H42.91v1.192c0 1.07-.028 1.24-.216 1.578-.122.207-.376.46-.582.582l-.376.216H22.175c-21.797 0-19.938.057-20.473-.638-.244-.32-.254-.385-.282-1.634l-.037-1.296h1.981c1.86 0 1.991-.01 2.17-.188a.751.751 0 00.187-.47.752.752 0 00-.187-.47c-.179-.178-.31-.187-2.16-.187H1.402v-16.81H42.91v1.596zm2.235 6.78l.019 3.832h-4.573c-2.686 0-4.752-.047-4.987-.094-1.474-.347-2.658-1.596-2.94-3.108-.375-2.057 1.146-4.123 3.231-4.395.32-.047 2.526-.075 4.902-.066l4.32.01.028 3.822z" fill="#4086F4"/></svg>