<svg width="42" height="48" fill="none" xmlns="http://www.w3.org/2000/svg"><path d="M18.44.104c-6.063.61-11.648 3.998-15.11 9.18C1.696 11.732.466 15.12.091 18.2c-.14 1.173-.113 3.388.047 4.336 1.014 5.772 6.73 13.92 15.909 22.667 1.886 1.793 2.309 2.15 2.9 2.45.667.328.751.347 1.605.347s.939-.019 1.605-.347c.591-.3 1.014-.657 2.9-2.45 5.96-5.678 10.757-11.47 13.403-16.21 1.305-2.346 2.084-4.326 2.469-6.297.206-1.061.244-3.173.084-4.496-.347-2.882-1.417-5.97-2.881-8.354-1.136-1.84-3.004-3.951-4.684-5.312-4.186-3.36-9.63-4.975-15.008-4.43zm5.116 1.53c4.965.826 9.395 3.51 12.36 7.499 1.981 2.656 3.164 5.538 3.652 8.88.225 1.604.15 3.95-.188 5.208-1.464 5.557-6.701 12.718-15.44 21.1-1.163 1.107-2.102 1.933-2.346 2.055a2.333 2.333 0 01-1.774.122c-.563-.178-1.82-1.304-4.608-4.092C9.28 36.484 5.394 31.49 3.188 26.976c-1.37-2.788-1.783-4.346-1.783-6.664 0-8.56 6.054-16.21 14.51-18.34a27.276 27.276 0 012.995-.517c.788-.075 3.791.038 4.646.179z" fill="#FFB60A"/><path d="M18.956 5.256c-3.5.404-6.513 1.802-9.047 4.215-2.281 2.177-3.792 4.89-4.487 8.1-.178.825-.206 1.238-.206 3.022 0 1.783.028 2.196.206 3.013.46 2.102 1.37 4.214 2.525 5.856.91 1.286 2.656 2.995 3.914 3.84 3.463 2.308 7.19 3.134 11.272 2.487.517-.085 1.07-.207 1.24-.273.487-.206.553-.863.112-1.192-.235-.178-.254-.178-1.314.029-1.399.281-3.717.3-5.06.047-2.88-.554-5.396-1.878-7.461-3.952-1.323-1.314-2.816-3.5-2.525-3.689.057-.037 1.164-.948 2.45-2.018 1.53-1.267 2.375-2.027 2.412-2.177.131-.507-.45-1.033-.91-.817-.113.047-1.202.92-2.413 1.924l-2.205 1.83-.132-.29c-.206-.488-.553-1.962-.675-2.854-.17-1.267-.057-3.594.225-4.815 1.192-5.021 4.805-8.897 9.667-10.362 1.436-.431 2.347-.563 4.008-.563 1.821 0 2.816.16 4.42.695 1.897.629 3.586 1.614 4.985 2.9.845.789 1.164.901 1.52.544.441-.44.348-.704-.535-1.539-3.088-2.919-7.715-4.449-11.986-3.96z" fill="#FFB60A"/><path d="M23.931 11.695c-.61.226-1.427 1.06-1.643 1.708-.375 1.136.01 2.413.94 3.126 1.426 1.089 3.406.62 4.25-1.004.357-.695.357-1.67-.009-2.412-.319-.648-.948-1.23-1.539-1.427-.544-.188-1.445-.178-1.999.01zm1.69 1.39c.854.44.976 1.633.234 2.28a1.4 1.4 0 01-2.055-.235c-.273-.375-.3-1.126-.066-1.51.394-.62 1.248-.864 1.886-.536z" fill="#FFB60A"/><path d="M32.388 12.155c-.244.31-.244.47-.01.882.488.854 1.127 2.178 1.361 2.816.526 1.474.714 2.534.77 4.43.028.976.028 1.765-.01 1.765-.037 0-.92-.685-1.961-1.52-1.042-.846-2.046-1.606-2.225-1.69-.413-.216-.976-.207-1.454.01-.207.102-1.174.834-2.14 1.651-1.22 1.004-1.803 1.436-1.878 1.38a304.43 304.43 0 01-2.937-2.347c-1.558-1.239-2.929-2.28-3.041-2.318-.432-.14-1.117-.075-1.465.131-.675.404-3.397 2.732-3.454 2.966-.131.507.45 1.033.91.826.114-.056.864-.647 1.662-1.314.798-.666 1.52-1.239 1.605-1.267.085-.037.254.01.385.094.544.366 13.121 10.465 13.121 10.54 0 .038-.45.535-1.004 1.098-1.117 1.136-2.009 1.83-3.22 2.516-.44.244-.872.507-.957.582-.234.197-.216.722.02.957.262.263.572.235 1.247-.103 3.36-1.69 6.233-5.078 7.472-8.795.591-1.774.704-2.571.704-4.852 0-2.271-.113-3.07-.704-4.853-.348-1.07-1.286-3.003-1.68-3.482-.376-.44-.817-.488-1.117-.103zm-.423 9.705c1.859 1.483 2.234 1.82 2.215 2-.112.769-1.182 3.34-1.633 3.941-.112.15-.403-.066-3.294-2.384-1.746-1.398-3.154-2.562-3.126-2.59.413-.423 3.332-2.75 3.445-2.75.084 0 1.154.807 2.393 1.783z" fill="#FFB60A"/></svg>