<svg width="180" height="131" fill="none" xmlns="http://www.w3.org/2000/svg"><path d="M67.24 54.971a.369.369 0 00.14-.29l-.39-7 3.37-2.06a2.241 2.241 0 00.75-3.09l-1.27-2.09a2.26 2.26 0 00-3.1-.75l-.18.11-.79-14.38 16-8.25a7.42 7.42 0 003.36-4.62l.06-.27 2.16-3.43a3.64 3.64 0 000-3.84 3.65 3.65 0 00-3.44-1.74l-4 .35a7.42 7.42 0 00-5.93.82l-14.74 10.41-12.42-7.28.18-.11a2.26 2.26 0 00.75-3.1l-1.27-2.09a2.27 2.27 0 00-3.1-.75l-3.37 2.06-6-3.54a.35.35 0 00-.33 0l-5.72 2.95a.37.37 0 00-.19.3.37.37 0 000 .18.37.37 0 00.13.12l2.94 1.64 2.11 2.65-1.52.93a.341.341 0 00-.11.47l.17.28-1.32.81a1 1 0 00-.33 1.36l1.89 3.1a1 1 0 001.36.33l1.32-.81.17.28a.35.35 0 00.47.12l2.25-1.38 8.67 10.91-12.9 9.18-8.45-3.52-3.62 1.86 5.67 6.31-2.32 2.69 2.37 3.89 3.39-.93 3 7.91 3.31-2.36.74-9.13 14.35-7.42 5.45 12.85-2.26 1.38a.34.34 0 00-.12.46l.18.29-1.33.81a1 1 0 00-.32 1.35l1.89 3.1a1 1 0 001.35.33l1.33-.8.17.28a.34.34 0 00.47.11l1.52-.92 1.39 3.08.11 3.37a.48.48 0 00.05.17.44.44 0 00.14.13.36.36 0 00.35 0l5.36-3.78zm-26.49-51l3-1.86a1.58 1.58 0 012.17.52l1.28 2.09a1.59 1.59 0 01-.53 2.17l-.49.3-2.74-1.61-2.69-1.61zm-7.93 10.61a.31.31 0 01-.42-.1l-1.89-3.11a.3.3 0 01.1-.42l1.32-.81 2.22 3.63-1.33.81zm2.26-.59l-2.92-4.78 1.3-.79 3.51 4.42-1.89 1.15zm2.66-1.27l-3.93-5-2.38-3a.431.431 0 00-.1-.09l-2.45-1.36 5-2.58 9 5.26 3.21 1.89 12.64 7.41-12.14 8.56-8.85-11.09zm29.35 27.57a1.58 1.58 0 012.17.52l1.27 2.09a1.58 1.58 0 01-.52 2.17l-3.06 1.86-.17-3.17-.18-3.18.49-.29zm16.89-36.34a2.92 2.92 0 012.8 1.42 2.93 2.93 0 010 3.13l-1.43 2.28v-.1c0-.26-.02-.522-.06-.78a.913.913 0 000-.23 6.4 6.4 0 00-.18-.87v-.08a8.107 8.107 0 00-.28-.78l-.1-.21c-.12-.28-.26-.55-.42-.81a9.98 9.98 0 00-.52-.75l-.15-.18a8.233 8.233 0 00-.57-.61l-.05-.05a7.467 7.467 0 00-.7-.56l-.18-.13a6.824 6.824 0 00-.68-.41.35.35 0 00-.08-.05l2.6-.23zm-4.22.34a6.77 6.77 0 013.9 3 6.8 6.8 0 01.86 4.85l-.06.28a6.79 6.79 0 01-3.05 4.2l-16.14 8.34-13.63 7-21.11 10.92-.92-1.51c2.5-1.533 5-3.06 7.5-4.58a1 1 0 00-1-1.73l-7.51 4.57-.89-1.46 31.76-22.59.11-.07 14.66-10.51a6.79 6.79 0 015.49-.72l.03.01zm-57.58 27.71l2.56-1.32 7.66 3.19-5.1 3.75v-.08l-.05.06-5.07-5.6zm4.94 11.9l-1.85-3 1.89-2.19.81 1.34a1.014 1.014 0 001.06 1.73l.85 1.39-2.76.73zm8.76 5l-2.34 1.67-2.69-7h.08v-.07l5.66-2.82-.71 8.22zm20.23 3.82a.31.31 0 01-.42-.11l-1.9-3.1a.31.31 0 01.11-.43l1.32-.8 2.22 3.63-1.33.81zm2.25-.59l-2.91-4.78 1.89-1.16.22.48 2.11 4.67-1.31.79zm3.66 2.82v-.12l-1.57-3.5-2.61-5.76-5.6-13.11 11.52-6 1.36-.71.81 14.64.21 3.66.57 10.46-4.58 3.26-.11-2.82zm97.22 41.02a.363.363 0 00.14-.29l-.39-7 3.37-2.06a2.244 2.244 0 001.054-2.266 2.234 2.234 0 00-.304-.824l-1.27-2.09a2.261 2.261 0 00-3.1-.75l-.18.11-.79-14.38 16-8.25a7.416 7.416 0 003.36-4.62l.06-.27 2.16-3.43a3.639 3.639 0 000-3.84 3.651 3.651 0 00-3.44-1.74l-4 .35a7.424 7.424 0 00-5.93.82l-14.74 10.41-12.42-7.28.18-.11a2.263 2.263 0 00.75-3.1l-1.27-2.09a2.27 2.27 0 00-3.1-.75l-3.37 2.06-6-3.54a.353.353 0 00-.33 0l-5.72 2.95a.37.37 0 00-.19.3.366.366 0 000 .18c.033.05.077.091.13.12l2.94 1.64 2.11 2.65-1.52.93a.341.341 0 00-.11.47l.17.28-1.32.81a1.002 1.002 0 00-.33 1.36l1.89 3.1a.998.998 0 001.36.33l1.32-.81.17.28a.35.35 0 00.47.12l2.25-1.38 8.67 10.91-12.9 9.18-8.45-3.52-3.62 1.86 5.67 6.31-2.32 2.69 2.37 3.89 3.39-.93 3 7.91 3.31-2.36.74-9.13 14.35-7.42 5.45 12.85-2.26 1.38a.343.343 0 00-.154.206.343.343 0 00.034.254l.18.29-1.33.81a.997.997 0 00-.32 1.35l1.89 3.1a.998.998 0 001.35.33l1.33-.8.17.28a.333.333 0 00.345.157.342.342 0 00.125-.047l1.52-.92 1.39 3.08.11 3.37c.006.06.023.117.05.17a.43.43 0 00.14.13.359.359 0 00.35 0l5.36-3.78zm-26.49-51l3-1.86a1.58 1.58 0 012.17.52l1.28 2.09a1.59 1.59 0 01-.53 2.17l-.49.3-2.74-1.61-2.69-1.61zm-7.93 10.61a.31.31 0 01-.42-.1l-1.89-3.11a.283.283 0 01-.043-.111.284.284 0 01.004-.12.293.293 0 01.139-.189l1.32-.81 2.22 3.63-1.33.81zm2.26-.59l-2.92-4.78 1.3-.79 3.51 4.42-1.89 1.15zm2.66-1.27l-3.93-5-2.38-3a.441.441 0 00-.1-.09l-2.45-1.36 5-2.58 9 5.26 3.21 1.89 12.64 7.41-12.14 8.56-8.85-11.09zm29.35 27.57a1.58 1.58 0 012.17.52l1.27 2.09a1.579 1.579 0 01-.52 2.17l-3.06 1.86-.17-3.17-.18-3.18.49-.29zm16.89-36.34a2.92 2.92 0 012.8 1.42 2.93 2.93 0 010 3.13l-1.43 2.28v-.1c0-.26-.02-.522-.06-.78a.885.885 0 000-.23c-.04-.294-.1-.584-.18-.87v-.08a8.276 8.276 0 00-.28-.78l-.1-.21c-.12-.28-.26-.55-.42-.81a9.98 9.98 0 00-.52-.75l-.15-.18a8.365 8.365 0 00-.57-.61l-.05-.05a7.53 7.53 0 00-.7-.56l-.18-.13a6.91 6.91 0 00-.68-.41.34.34 0 00-.08-.05l2.6-.23zm-4.22.34a6.771 6.771 0 013.9 3 6.801 6.801 0 01.86 4.85l-.06.28a6.788 6.788 0 01-3.05 4.2l-16.14 8.34-13.63 7-21.11 10.92-.92-1.51c2.5-1.533 5-3.06 7.5-4.58a1.002 1.002 0 00-.258-1.804 1 1 0 00-.742.074l-7.51 4.57-.89-1.46 31.76-22.59.11-.07 14.66-10.51a6.786 6.786 0 015.49-.72l.03.01zm-57.58 27.71l2.56-1.32 7.66 3.19-5.1 3.75v-.08l-.05.06-5.07-5.6zm4.94 11.9l-1.85-3 1.89-2.19.81 1.34a1.014 1.014 0 101.06 1.73l.85 1.39-2.76.73zm8.76 5l-2.34 1.67-2.69-7h.08v-.07l5.66-2.82-.71 8.22zm20.23 3.82a.311.311 0 01-.42-.11l-1.9-3.1a.317.317 0 01-.036-.238.307.307 0 01.146-.192l1.32-.8 2.22 3.63-1.33.81zm2.25-.59l-2.91-4.78 1.89-1.16.22.48 2.11 4.67-1.31.79zm3.66 2.82v-.12l-1.57-3.5-2.61-5.76-5.6-13.11 11.52-6 1.36-.71.81 14.64.21 3.66.57 10.46-4.58 3.26-.11-2.82zM10.014 91.29l-.204-.763a.32.32 0 01.236-.395.319.319 0 01.394.236l.497 1.855a.33.33 0 01-.211.409.34.34 0 01-.411-.221l-.3-1.12zm-.597-2.615c-.168-.627-.23-1.284-.32-1.932a.32.32 0 01.275-.364.318.318 0 01.363.275c.089.64.196 1.273.32 1.892a.33.33 0 01-.385.38.32.32 0 01-.253-.25zm1.504 5.613a.33.33 0 01.195-.394.33.33 0 01.416.199c.18.48.365.937.576 1.419l.147.354a.321.321 0 01-.165.427.32.32 0 01-.418-.167l-.156-.352a22.64 22.64 0 01-.587-1.457l-.008-.03zm-2.094-9.44l-.013-.048a46.236 46.236 0 01-.14-1.95.33.33 0 01.303-.34.32.32 0 01.342.312c.037.642.075 1.284.141 1.918a.32.32 0 01-.29.347.32.32 0 01-.295-.252l-.048.013zm3.653 12.977a.32.32 0 01.17-.367.31.31 0 01.432.143c.284.556.592 1.125.92 1.69a.32.32 0 01-.122.436.33.33 0 01-.446-.118 32.665 32.665 0 01-.926-1.72l-.028-.064zM8.628 80.978l-.02-.078c.003-.643.004-1.295.034-1.955a.32.32 0 01.332-.307.31.31 0 01.307.332 73.258 73.258 0 00-.024 1.922.31.31 0 01-.317.323.31.31 0 01-.264-.25l-.048.013zm5.773 20.193a.329.329 0 01.142-.359.319.319 0 01.441.1c.341.54.702 1.075 1.08 1.595a.339.339 0 01-.075.455.33.33 0 01-.457-.085 30.666 30.666 0 01-1.085-1.614l-.046-.092zM8.766 77.089l-.028-.106a59.33 59.33 0 01.195-1.937.32.32 0 01.36-.282.32.32 0 01.282.359 34.283 34.283 0 00-.19 1.915.32.32 0 01-.348.29.31.31 0 01-.217-.232l-.054-.007zm7.879 27.239a.339.339 0 01.106-.339.332.332 0 01.438-.058c.045.03.081.072.106.12.392.495.796.998 1.216 1.485a.316.316 0 01.078.235.32.32 0 01-.111.22.335.335 0 01-.234.074.333.333 0 01-.22-.108 68.424 68.424 0 01-1.244-1.51l-.135-.119zm-7.41-31.091a.3.3 0 01-.033-.126c.108-.64.226-1.282.356-1.917a.32.32 0 01.376-.257.33.33 0 01.259.387 39.095 39.095 0 00-.354 1.886.32.32 0 01-.362.272.33.33 0 01-.188-.239l-.054-.006zm9.946 34.025a.32.32 0 01.082-.312.324.324 0 01.231-.091.318.318 0 01.227.103c.445.46.899.919 1.396 1.344a.342.342 0 01.01.464.326.326 0 01-.225.098.325.325 0 01-.228-.091c-.471-.443-.928-.911-1.406-1.383a.38.38 0 01-.073-.115l-.014-.017zm-9.17-37.815a.29.29 0 01-.042-.155c.162-.633.326-1.257.529-1.891a.34.34 0 01.406-.223.34.34 0 01.223.406c-.186.62-.353 1.234-.536 1.863a.319.319 0 01-.392.24.32.32 0 01-.106-.242l-.082.002zm11.958 40.495a.334.334 0 01.075-.3.343.343 0 01.458-.03c.475.422.98.835 1.479 1.23a.328.328 0 01-.164.575.31.31 0 01-.238-.064 35.555 35.555 0 01-1.505-1.253.278.278 0 01-.09-.142l-.015-.016zM11.151 65.704a.32.32 0 01.011-.19c.208-.614.438-1.224.67-1.825a.319.319 0 01.427-.187.317.317 0 01.199.297.32.32 0 01-.025.123c-.232.6-.465 1.16-.653 1.81a.33.33 0 01-.54.116.31.31 0 01-.074-.127l-.015-.017zm13.912 46.628a.332.332 0 01.052-.272.325.325 0 01.092-.085.327.327 0 01.355.016c.51.361 1.06.752 1.592 1.075a.33.33 0 01.037.541.321.321 0 01-.361.022c-.55-.349-1.1-.74-1.618-1.088a.339.339 0 01-.151-.218l.002.009zm-12.488-50.24a.31.31 0 01.016-.21c.264-.6.552-1.184.831-1.766a.32.32 0 01.444-.12.32.32 0 01.117.435c-.282.573-.553 1.184-.825 1.754a.32.32 0 01-.526.036.3.3 0 01-.052-.11l-.005-.018zM28.36 114.44a.37.37 0 01.037-.248.34.34 0 01.445-.119c.55.319 1.121.632 1.687.925a.32.32 0 01.116.435.331.331 0 01-.435.116c-.587-.298-1.196-.6-1.72-.936a.34.34 0 01-.13-.173zM14.35 58.635a.35.35 0 01.027-.245c.323-.573.658-1.14.998-1.686a.33.33 0 01.444-.119.32.32 0 01.116.435c-.33.544-.658 1.097-.973 1.658a.33.33 0 01-.445.12.3.3 0 01-.206-.153l.039-.01zM31.845 116.2a.33.33 0 01.013-.221.329.329 0 01.445-.119 29.28 29.28 0 001.77.736.331.331 0 01.12.526.299.299 0 01-.103.074.313.313 0 01-.248.001c-.611-.23-1.169-.495-1.806-.748a.331.331 0 01-.259-.231l.068-.018zM16.437 55.333a.3.3 0 01.041-.27c.375-.535.752-1.06 1.15-1.582a.322.322 0 01.575.16.33.33 0 01-.063.242 41.186 41.186 0 00-1.13 1.544.33.33 0 01-.443.12.352.352 0 01-.198-.196l.068-.018zm19.022 62.258a.26.26 0 01.004-.177.33.33 0 01.409-.213c.602.201 1.221.387 1.833.544a.32.32 0 01.23.394.333.333 0 01-.151.194.333.333 0 01-.243.035c-.627-.173-1.255-.357-1.872-.533a.316.316 0 01-.249-.234l.039-.01zM18.79 52.259a.32.32 0 01.066-.297 35.09 35.09 0 011.297-1.456.32.32 0 01.555.209.33.33 0 01-.084.234 40.18 40.18 0 00-1.283 1.431.32.32 0 01-.456.04.41.41 0 01-.162-.143l.067-.019zm20.406 66.339a.281.281 0 01-.04-.145.32.32 0 01.38-.247c.635.13 1.268.251 1.893.342.041.006.081.02.118.041a.318.318 0 01.143.198.31.31 0 01.002.125.315.315 0 01-.124.212.316.316 0 01-.238.061 46.87 46.87 0 01-1.924-.343.331.331 0 01-.278-.226l.068-.018zM21.439 49.427a.33.33 0 01.082-.312c.474-.445.957-.885 1.448-1.32a.32.32 0 01.454.034.32.32 0 01-.034.454c-.478.418-.96.858-1.412 1.3a.32.32 0 01-.458-.012.29.29 0 01-.148-.126l.068-.018zm21.598 69.788l-.028-.107a.329.329 0 01.356-.292c.479.048.965.083 1.445.1l.471.018a.323.323 0 01.28.456.32.32 0 01-.303.192l-.47-.018a33.24 33.24 0 01-1.487-.099.341.341 0 01-.344-.28l.08.03zm3.876.131l-.02-.077a.33.33 0 01.314-.333 34.326 34.326 0 001.922-.091.32.32 0 01.231.075.312.312 0 01.106.218.32.32 0 01-.29.347 35.45 35.45 0 01-1.95.098.325.325 0 01-.254-.05.333.333 0 01-.14-.217l.081.03zm3.867-.291l-.013-.048a.319.319 0 01.278-.354c.666-.089 1.305-.177 1.916-.265a.306.306 0 01.238.056.301.301 0 01.123.21.317.317 0 01-.145.326.33.33 0 01-.118.044c-.646.101-1.284.189-1.936.271a.306.306 0 01-.28-.027.309.309 0 01-.144-.243l.08.03zm3.825-.6a.324.324 0 01.054-.24.307.307 0 01.091-.086.312.312 0 01.118-.045c.618-.165 1.257-.254 1.883-.39a.322.322 0 01.127-.005.32.32 0 01.26.253.318.318 0 01-.248.387c-.628.168-1.274.269-1.905.386a.32.32 0 01-.312-.016.32.32 0 01-.149-.274l.08.03zm3.787-.818a.31.31 0 01.238-.385l1.865-.5a.326.326 0 01.242.032.323.323 0 01.15.195.32.32 0 01-.239.385l-1.874.502a.313.313 0 01-.3-.007.316.316 0 01-.163-.252l.08.03zm3.763-.946a.33.33 0 01.214-.399c.59-.158 1.208-.324 1.829-.594a.33.33 0 01.416.199.34.34 0 01-.2.416c-.64.234-1.27.434-1.906.614a.318.318 0 01-.392-.226l.04-.01zm3.646-1.309a.319.319 0 01.188-.381 51.234 51.234 0 001.755-.791.328.328 0 01.434.152.332.332 0 01-.153.435 50.57 50.57 0 01-1.784.799.33.33 0 01-.43-.175l-.01-.039zm3.511-1.655a.31.31 0 01.171-.366 92.219 92.219 0 001.69-.919.328.328 0 01.448.128.33.33 0 01-.13.439c-.577.32-1.147.628-1.72.926a.33.33 0 01-.432-.143l-.027-.065zm3.386-1.891a.328.328 0 01.152-.361 74.526 74.526 0 001.644-1.01.308.308 0 01.357.006.315.315 0 01.084.093.312.312 0 01-.1.441 42.26 42.26 0 01-1.65 1.022.316.316 0 01-.245.039.324.324 0 01-.2-.148l-.042-.082zm3.271-2.087a.32.32 0 01.133-.357c.534-.36 1.057-.728 1.577-1.106a.316.316 0 01.359-.02.314.314 0 01.093.086.327.327 0 01-.075.454c-.52.378-1.05.758-1.594 1.121a.321.321 0 01-.445-.077l-.048-.101zm3.135-2.289a.33.33 0 01.115-.342 41.132 41.132 0 001.498-1.209.316.316 0 01.11-.065.323.323 0 01.25.024c.038.021.071.05.097.084a.315.315 0 01.042.349.316.316 0 01-.078.096c-.498.423-1 .827-1.522 1.236a.314.314 0 01-.237.065.313.313 0 01-.213-.121l-.062-.117zm.23-9.07c-.168-.627-.252-1.288-.34-1.927a.311.311 0 01.275-.363.319.319 0 01.364.275c.083.62.203 1.26.337 1.876a.32.32 0 01-.248.388.331.331 0 01-.468-.278l.08.03zm.502 1.875a.321.321 0 01.205-.397.33.33 0 01.408.212c.169.628.421 1.222.666 1.788a.341.341 0 01-.175.43.31.31 0 01-.247 0 .333.333 0 01-.104-.071.334.334 0 01-.069-.106 20.068 20.068 0 01-.691-1.885l.007.029zm-1.022-5.71l-.018-.068a16.35 16.35 0 01.02-1.972.33.33 0 01.341-.31.32.32 0 01.3.345c-.044.636-.05 1.273-.017 1.91a.322.322 0 01-.314.332.32.32 0 01-.383-.27l.07.033zm2.552 9.255a.32.32 0 01.152-.362.329.329 0 01.436.121c.157.279.334.553.506.807.372-.349.742-.706 1.093-1.059a.328.328 0 01.466-.001.341.341 0 01-.002.456c-.377.37-.771.755-1.187 1.136l.183.22a.33.33 0 01-.053.459.317.317 0 01-.45-.055l-.294-.366-.069-.065a.346.346 0 01-.044-.164 13.894 13.894 0 01-.665-1.053l-.072-.074zm-2.26-13.112a.37.37 0 01-.04-.145c.141-.661.37-1.3.682-1.901a.33.33 0 01.541-.036.32.32 0 01.022.361 7.473 7.473 0 00-.62 1.74.31.31 0 01-.382.237.32.32 0 01-.275-.289l.071.033zm4.704 16.09a.318.318 0 01.058-.284.329.329 0 01.453-.049c.356.287.744.531 1.157.725.142.066.287.141.438.204a.327.327 0 01.034.531.321.321 0 01-.362.022c-.151-.063-.296-.138-.45-.21a7.28 7.28 0 01-1.253-.814.356.356 0 01-.146-.157l.071.032zm1.003-4.565a.317.317 0 01.065-.297c.445-.502.862-.997 1.23-1.478a.341.341 0 01.462-.052.32.32 0 01.108.342.32.32 0 01-.06.111c-.374.494-.768.993-1.252 1.506a.33.33 0 01-.46.02.263.263 0 01-.164-.184l.07.032zm-3.768-14.757a.32.32 0 01.151-.362 2.82 2.82 0 01.663-.27 3.28 3.28 0 011.428-.041.321.321 0 01.212.491.311.311 0 01-.323.139 2.759 2.759 0 00-1.149.038 2.03 2.03 0 00-.513.21.32.32 0 01-.436-.12l-.033-.085zm6.212 21.059a.33.33 0 01.175-.382.313.313 0 01.248-.01c.598.222 1.21.421 1.814.549a.314.314 0 01.192.152.322.322 0 01-.368.465 21.302 21.302 0 01-1.868-.597.312.312 0 01-.264-.209l.071.032zm-.077-9.369a.321.321 0 01.044-.26c.342-.532.65-1.085.923-1.655a.33.33 0 01.444-.12.32.32 0 01.117.435c-.287.595-.61 1.173-.966 1.73a.32.32 0 01-.444.118.321.321 0 01-.19-.28l.072.032zm-2.453-11.28a.35.35 0 01.02-.232.34.34 0 01.445-.12c.595.298 1.166.644 1.705 1.034a.32.32 0 01.068.448.33.33 0 01-.457.07 10.867 10.867 0 00-1.605-.967.35.35 0 01-.247-.265l.07.033zm6.261 21.669a.358.358 0 01-.036-.136.311.311 0 01.135-.206.314.314 0 01.242-.05c.63.111 1.262.19 1.898.247a.322.322 0 01.29.347.321.321 0 01-.22.284.313.313 0 01-.124.015 22.13 22.13 0 01-1.955-.263.306.306 0 01-.2-.08.306.306 0 01-.1-.191l.07.033zm-2.184-13.909a.332.332 0 01.007-.167 7 7 0 00.258-1.82.32.32 0 01.317-.322.308.308 0 01.323.317 7.772 7.772 0 01-.272 1.998.33.33 0 01-.406.223.33.33 0 01-.293-.242l.066.013zm-1.009-5.465a.34.34 0 01.106-.34.32.32 0 01.447.047 6.001 6.001 0 011.03 1.794.321.321 0 01-.19.414.31.31 0 01-.413-.19 5.682 5.682 0 00-.91-1.578.31.31 0 01-.136-.16l.066.013zm7.043 19.678l-.02-.078a.33.33 0 01.326-.325c.63-.004 1.273-.041 1.898-.105a.317.317 0 01.32.166.323.323 0 01-.035.358.333.333 0 01-.216.12 20.95 20.95 0 01-1.958.11.33.33 0 01-.38-.26l.065.014zm3.857-.403a.318.318 0 01.131-.337.317.317 0 01.118-.05l1.178-.316.667-.178a.306.306 0 01.124-.012.31.31 0 01.119.036c.037.02.07.047.097.079.026.033.046.07.058.111a.311.311 0 01-.099.348.304.304 0 01-.112.06l-.686.184-1.217.326a.321.321 0 01-.395-.123.324.324 0 01-.048-.141l.065.013zm3.705-1.127a.321.321 0 01.188-.381 21.006 21.006 0 001.73-.806.321.321 0 01.355.044.323.323 0 01-.057.529 22.55 22.55 0 01-1.786.83.326.326 0 01-.247 0 .337.337 0 01-.104-.071.334.334 0 01-.069-.106l-.01-.039zm3.436-1.78a.31.31 0 01.033-.34 24.013 24.013 0 001.571-1.094.315.315 0 01.236-.065.315.315 0 01.213.121.339.339 0 01-.062.462c-.515.397-1.067.772-1.604 1.123a.33.33 0 01-.453-.106l.066-.101zm3.075-2.356a.304.304 0 01.092-.314c.475-.428.924-.88 1.358-1.348a.329.329 0 01.463-.01.31.31 0 01.007.454c-.44.48-.908.937-1.383 1.406a.331.331 0 01-.461-.022l-.076-.166zm2.638-2.829a.33.33 0 01.061-.275c.394-.499.761-1.022 1.116-1.552a.33.33 0 01.541-.036.321.321 0 01.023.362 26.02 26.02 0 01-1.15 1.581.332.332 0 01-.46.061.36.36 0 01-.197-.154l.066.013zm2.139-3.223a.309.309 0 01.03-.236c.305-.558.597-1.133.856-1.71a.318.318 0 01.524-.093c.029.03.052.066.068.105a.323.323 0 01-.005.245 26.156 26.156 0 01-.873 1.766.33.33 0 01-.444.119.366.366 0 01-.222-.21l.066.014zm1.58-3.53a.407.407 0 01.002-.186c.21-.606.399-1.215.546-1.824a.329.329 0 01.145-.203.32.32 0 01.247-.037.329.329 0 01.239.392 37.759 37.759 0 01-.534 1.872.315.315 0 01-.162.188.323.323 0 01-.249.015.321.321 0 01-.322-.235l.088.018zm.929-3.758l-.031-.116c.099-.631.163-1.267.193-1.905a.331.331 0 01.345-.3.33.33 0 01.309.342 25.41 25.41 0 01-.203 1.95.33.33 0 01-.371.275.319.319 0 01-.311-.27l.069.024z" fill="#999"/></svg>